solid OpenSCAD_Model
  facet normal 1 -0 0
    outer loop
      vertex 23.5 -23.5 0.499
      vertex 23.5 23.5 0
      vertex 23.5 23.5 0.499
    endloop
  endfacet
  facet normal 1 0 0
    outer loop
      vertex 23.5 23.5 0
      vertex 23.5 -23.5 0.499
      vertex 23.5 -23.5 0
    endloop
  endfacet
  facet normal 0 0 -1
    outer loop
      vertex -23.5 -23.5 0
      vertex 23.5 23.5 0
      vertex 23.5 -23.5 0
    endloop
  endfacet
  facet normal -0 0 -1
    outer loop
      vertex 23.5 23.5 0
      vertex -23.5 -23.5 0
      vertex -23.5 23.5 0
    endloop
  endfacet
  facet normal -1 0 0
    outer loop
      vertex -23.5 -23.5 0
      vertex -23.5 23.5 0.499
      vertex -23.5 23.5 0
    endloop
  endfacet
  facet normal -1 -0 0
    outer loop
      vertex -23.5 23.5 0.499
      vertex -23.5 -23.5 0
      vertex -23.5 -23.5 0.499
    endloop
  endfacet
  facet normal 0 1 -0
    outer loop
      vertex 23.5 23.5 0
      vertex -23.5 23.5 0.499
      vertex 23.5 23.5 0.499
    endloop
  endfacet
  facet normal 0 1 0
    outer loop
      vertex -23.5 23.5 0.499
      vertex 23.5 23.5 0
      vertex -23.5 23.5 0
    endloop
  endfacet
  facet normal 0 -1 0
    outer loop
      vertex -23.5 -23.5 0
      vertex 23.5 -23.5 0.499
      vertex -23.5 -23.5 0.499
    endloop
  endfacet
  facet normal 0 -1 -0
    outer loop
      vertex 23.5 -23.5 0.499
      vertex -23.5 -23.5 0
      vertex 23.5 -23.5 0
    endloop
  endfacet
  facet normal 0.707195 0 -0.707018
    outer loop
      vertex 27.1001 -27.0273 4.1
      vertex 23.5 23.5 0.499
      vertex 27.1001 27.1001 4.1
    endloop
  endfacet
  facet normal 0.707195 0 -0.707018
    outer loop
      vertex 23.5 23.5 0.499
      vertex 27.1001 -27.0273 4.1
      vertex 23.5 -23.5 0.499
    endloop
  endfacet
  facet normal 0.70696 -0.000479231 -0.707253
    outer loop
      vertex 23.5 -23.5 0.499
      vertex 27.1001 -27.0273 4.1
      vertex 27.0268 -27.0268 4.02673
    endloop
  endfacet
  facet normal 0 -0.7072 -0.707014
    outer loop
      vertex -23.5 -23.5 0.499
      vertex 27.0268 -27.0268 4.02673
      vertex -27.0268 -27.0268 4.02673
    endloop
  endfacet
  facet normal 0 -0.7072 -0.707014
    outer loop
      vertex 27.0268 -27.0268 4.02673
      vertex -23.5 -23.5 0.499
      vertex 23.5 -23.5 0.499
    endloop
  endfacet
  facet normal -0.7072 0 -0.707014
    outer loop
      vertex -23.5 -23.5 0.499
      vertex -27.0268 27.0268 4.02673
      vertex -23.5 23.5 0.499
    endloop
  endfacet
  facet normal -0.7072 -0 -0.707014
    outer loop
      vertex -27.0268 27.0268 4.02673
      vertex -23.5 -23.5 0.499
      vertex -27.0268 -27.0268 4.02673
    endloop
  endfacet
  facet normal 0 0.707195 -0.707018
    outer loop
      vertex 23.5 23.5 0.499
      vertex -27.0273 27.1001 4.1
      vertex 27.1001 27.1001 4.1
    endloop
  endfacet
  facet normal 0 0.707195 -0.707018
    outer loop
      vertex -23.5 23.5 0.499
      vertex -27.0273 27.1001 4.1
      vertex 23.5 23.5 0.499
    endloop
  endfacet
  facet normal -0.000479231 0.70696 -0.707253
    outer loop
      vertex -27.0273 27.1001 4.1
      vertex -23.5 23.5 0.499
      vertex -27.0268 27.0268 4.02673
    endloop
  endfacet
  facet normal 1 -0 0
    outer loop
      vertex 78.5 -23.5 0.499
      vertex 78.5 23.5 0
      vertex 78.5 23.5 0.499
    endloop
  endfacet
  facet normal 1 0 0
    outer loop
      vertex 78.5 23.5 0
      vertex 78.5 -23.5 0.499
      vertex 78.5 -23.5 0
    endloop
  endfacet
  facet normal 0 0 -1
    outer loop
      vertex 31.5 -23.5 0
      vertex 78.5 23.5 0
      vertex 78.5 -23.5 0
    endloop
  endfacet
  facet normal -0 0 -1
    outer loop
      vertex 78.5 23.5 0
      vertex 31.5 -23.5 0
      vertex 31.5 23.5 0
    endloop
  endfacet
  facet normal -1 0 0
    outer loop
      vertex 31.5 -23.5 0
      vertex 31.5 23.5 0.499
      vertex 31.5 23.5 0
    endloop
  endfacet
  facet normal -1 -0 0
    outer loop
      vertex 31.5 23.5 0.499
      vertex 31.5 -23.5 0
      vertex 31.5 -23.5 0.499
    endloop
  endfacet
  facet normal 0 1 -0
    outer loop
      vertex 78.5 23.5 0
      vertex 31.5 23.5 0.499
      vertex 78.5 23.5 0.499
    endloop
  endfacet
  facet normal 0 1 0
    outer loop
      vertex 31.5 23.5 0.499
      vertex 78.5 23.5 0
      vertex 31.5 23.5 0
    endloop
  endfacet
  facet normal 0 -1 0
    outer loop
      vertex 31.5 -23.5 0
      vertex 78.5 -23.5 0.499
      vertex 31.5 -23.5 0.499
    endloop
  endfacet
  facet normal 0 -1 -0
    outer loop
      vertex 78.5 -23.5 0.499
      vertex 31.5 -23.5 0
      vertex 78.5 -23.5 0
    endloop
  endfacet
  facet normal 0.7072 0 -0.707014
    outer loop
      vertex 82.0268 27.0268 4.02673
      vertex 78.5 -23.5 0.499
      vertex 78.5 23.5 0.499
    endloop
  endfacet
  facet normal 0.7072 0 -0.707014
    outer loop
      vertex 78.5 -23.5 0.499
      vertex 82.0268 27.0268 4.02673
      vertex 82.0268 -27.0268 4.02673
    endloop
  endfacet
  facet normal 0 -0.7072 -0.707014
    outer loop
      vertex 31.5 -23.5 0.499
      vertex 82.0268 -27.0268 4.02673
      vertex 27.9732 -27.0268 4.02673
    endloop
  endfacet
  facet normal 0 -0.7072 -0.707014
    outer loop
      vertex 82.0268 -27.0268 4.02673
      vertex 31.5 -23.5 0.499
      vertex 78.5 -23.5 0.499
    endloop
  endfacet
  facet normal -0.707195 0 -0.707018
    outer loop
      vertex 27.8999 -27.0273 4.1
      vertex 31.5 23.5 0.499
      vertex 31.5 -23.5 0.499
    endloop
  endfacet
  facet normal -0.70696 -0.000479231 -0.707253
    outer loop
      vertex 27.8999 -27.0273 4.1
      vertex 31.5 -23.5 0.499
      vertex 27.9732 -27.0268 4.02673
    endloop
  endfacet
  facet normal -0.707195 0 -0.707018
    outer loop
      vertex 31.5 23.5 0.499
      vertex 27.8999 -27.0273 4.1
      vertex 27.8999 27.1001 4.1
    endloop
  endfacet
  facet normal 0.000479231 0.70696 -0.707253
    outer loop
      vertex 78.5 23.5 0.499
      vertex 82.0273 27.1001 4.1
      vertex 82.0268 27.0268 4.02673
    endloop
  endfacet
  facet normal 0 0.707195 -0.707018
    outer loop
      vertex 31.5 23.5 0.499
      vertex 82.0273 27.1001 4.1
      vertex 78.5 23.5 0.499
    endloop
  endfacet
  facet normal 0 0.707195 -0.707018
    outer loop
      vertex 82.0273 27.1001 4.1
      vertex 31.5 23.5 0.499
      vertex 27.8999 27.1001 4.1
    endloop
  endfacet
  facet normal 1 -0 0
    outer loop
      vertex 23.5 31.5 0.499
      vertex 23.5 78.5 0
      vertex 23.5 78.5 0.499
    endloop
  endfacet
  facet normal 1 0 0
    outer loop
      vertex 23.5 78.5 0
      vertex 23.5 31.5 0.499
      vertex 23.5 31.5 0
    endloop
  endfacet
  facet normal 0 0 -1
    outer loop
      vertex -23.5 31.5 0
      vertex 23.5 78.5 0
      vertex 23.5 31.5 0
    endloop
  endfacet
  facet normal -0 0 -1
    outer loop
      vertex 23.5 78.5 0
      vertex -23.5 31.5 0
      vertex -23.5 78.5 0
    endloop
  endfacet
  facet normal -1 0 0
    outer loop
      vertex -23.5 31.5 0
      vertex -23.5 78.5 0.499
      vertex -23.5 78.5 0
    endloop
  endfacet
  facet normal -1 -0 0
    outer loop
      vertex -23.5 78.5 0.499
      vertex -23.5 31.5 0
      vertex -23.5 31.5 0.499
    endloop
  endfacet
  facet normal 0 1 -0
    outer loop
      vertex 23.5 78.5 0
      vertex -23.5 78.5 0.499
      vertex 23.5 78.5 0.499
    endloop
  endfacet
  facet normal 0 1 0
    outer loop
      vertex -23.5 78.5 0.499
      vertex 23.5 78.5 0
      vertex -23.5 78.5 0
    endloop
  endfacet
  facet normal 0 -1 0
    outer loop
      vertex -23.5 31.5 0
      vertex 23.5 31.5 0.499
      vertex -23.5 31.5 0.499
    endloop
  endfacet
  facet normal 0 -1 -0
    outer loop
      vertex 23.5 31.5 0.499
      vertex -23.5 31.5 0
      vertex 23.5 31.5 0
    endloop
  endfacet
  facet normal 0.70696 0.000479231 -0.707253
    outer loop
      vertex 27.1001 82.0273 4.1
      vertex 23.5 78.5 0.499
      vertex 27.0268 82.0268 4.02673
    endloop
  endfacet
  facet normal 0.707195 0 -0.707018
    outer loop
      vertex 27.1001 82.0273 4.1
      vertex 23.5 31.5 0.499
      vertex 23.5 78.5 0.499
    endloop
  endfacet
  facet normal 0.707195 0 -0.707018
    outer loop
      vertex 23.5 31.5 0.499
      vertex 27.1001 82.0273 4.1
      vertex 27.1001 27.8999 4.1
    endloop
  endfacet
  facet normal -0.000479231 -0.70696 -0.707253
    outer loop
      vertex -23.5 31.5 0.499
      vertex -27.0273 27.8999 4.1
      vertex -27.0268 27.9732 4.02673
    endloop
  endfacet
  facet normal -0 -0.707195 -0.707018
    outer loop
      vertex 23.5 31.5 0.499
      vertex -27.0273 27.8999 4.1
      vertex -23.5 31.5 0.499
    endloop
  endfacet
  facet normal 0 -0.707195 -0.707018
    outer loop
      vertex -27.0273 27.8999 4.1
      vertex 23.5 31.5 0.499
      vertex 27.1001 27.8999 4.1
    endloop
  endfacet
  facet normal -0.7072 0 -0.707014
    outer loop
      vertex -23.5 31.5 0.499
      vertex -27.0268 82.0268 4.02673
      vertex -23.5 78.5 0.499
    endloop
  endfacet
  facet normal -0.7072 -0 -0.707014
    outer loop
      vertex -27.0268 82.0268 4.02673
      vertex -23.5 31.5 0.499
      vertex -27.0268 27.9732 4.02673
    endloop
  endfacet
  facet normal 0 0.7072 -0.707014
    outer loop
      vertex 23.5 78.5 0.499
      vertex -27.0268 82.0268 4.02673
      vertex 27.0268 82.0268 4.02673
    endloop
  endfacet
  facet normal 0 0.7072 -0.707014
    outer loop
      vertex -27.0268 82.0268 4.02673
      vertex 23.5 78.5 0.499
      vertex -23.5 78.5 0.499
    endloop
  endfacet
  facet normal 1 -0 0
    outer loop
      vertex 78.5 31.5 0.499
      vertex 78.5 78.5 0
      vertex 78.5 78.5 0.499
    endloop
  endfacet
  facet normal 1 0 0
    outer loop
      vertex 78.5 78.5 0
      vertex 78.5 31.5 0.499
      vertex 78.5 31.5 0
    endloop
  endfacet
  facet normal 0 0 -1
    outer loop
      vertex 31.5 31.5 0
      vertex 78.5 78.5 0
      vertex 78.5 31.5 0
    endloop
  endfacet
  facet normal -0 0 -1
    outer loop
      vertex 78.5 78.5 0
      vertex 31.5 31.5 0
      vertex 31.5 78.5 0
    endloop
  endfacet
  facet normal -1 0 0
    outer loop
      vertex 31.5 31.5 0
      vertex 31.5 78.5 0.499
      vertex 31.5 78.5 0
    endloop
  endfacet
  facet normal -1 -0 0
    outer loop
      vertex 31.5 78.5 0.499
      vertex 31.5 31.5 0
      vertex 31.5 31.5 0.499
    endloop
  endfacet
  facet normal 0 1 -0
    outer loop
      vertex 78.5 78.5 0
      vertex 31.5 78.5 0.499
      vertex 78.5 78.5 0.499
    endloop
  endfacet
  facet normal 0 1 0
    outer loop
      vertex 31.5 78.5 0.499
      vertex 78.5 78.5 0
      vertex 31.5 78.5 0
    endloop
  endfacet
  facet normal 0 -1 0
    outer loop
      vertex 31.5 31.5 0
      vertex 78.5 31.5 0.499
      vertex 31.5 31.5 0.499
    endloop
  endfacet
  facet normal 0 -1 -0
    outer loop
      vertex 78.5 31.5 0.499
      vertex 31.5 31.5 0
      vertex 78.5 31.5 0
    endloop
  endfacet
  facet normal 0.7072 0 -0.707014
    outer loop
      vertex 82.0268 82.0268 4.02673
      vertex 78.5 31.5 0.499
      vertex 78.5 78.5 0.499
    endloop
  endfacet
  facet normal 0.7072 0 -0.707014
    outer loop
      vertex 78.5 31.5 0.499
      vertex 82.0268 82.0268 4.02673
      vertex 82.0268 27.9732 4.02673
    endloop
  endfacet
  facet normal 0 -0.707195 -0.707018
    outer loop
      vertex 31.5 31.5 0.499
      vertex 82.0273 27.8999 4.1
      vertex 27.8999 27.8999 4.1
    endloop
  endfacet
  facet normal -0 -0.707195 -0.707018
    outer loop
      vertex 78.5 31.5 0.499
      vertex 82.0273 27.8999 4.1
      vertex 31.5 31.5 0.499
    endloop
  endfacet
  facet normal 0.000479231 -0.70696 -0.707253
    outer loop
      vertex 82.0273 27.8999 4.1
      vertex 78.5 31.5 0.499
      vertex 82.0268 27.9732 4.02673
    endloop
  endfacet
  facet normal -0.70696 0.000479231 -0.707253
    outer loop
      vertex 31.5 78.5 0.499
      vertex 27.8999 82.0273 4.1
      vertex 27.9732 82.0268 4.02673
    endloop
  endfacet
  facet normal -0.707195 0 -0.707018
    outer loop
      vertex 31.5 31.5 0.499
      vertex 27.8999 82.0273 4.1
      vertex 31.5 78.5 0.499
    endloop
  endfacet
  facet normal -0.707195 -0 -0.707018
    outer loop
      vertex 27.8999 82.0273 4.1
      vertex 31.5 31.5 0.499
      vertex 27.8999 27.8999 4.1
    endloop
  endfacet
  facet normal 0 0.7072 -0.707014
    outer loop
      vertex 78.5 78.5 0.499
      vertex 27.9732 82.0268 4.02673
      vertex 82.0268 82.0268 4.02673
    endloop
  endfacet
  facet normal 0 0.7072 -0.707014
    outer loop
      vertex 27.9732 82.0268 4.02673
      vertex 78.5 78.5 0.499
      vertex 31.5 78.5 0.499
    endloop
  endfacet
  facet normal 0 0 1
    outer loop
      vertex 82.5 82.5 74.999
      vertex 81.2953 81.2953 74.999
      vertex 82.5 -27.5 74.999
    endloop
  endfacet
  facet normal 0 0 1
    outer loop
      vertex 82.5 82.5 74.999
      vertex -26.2953 81.2953 74.999
      vertex 81.2953 81.2953 74.999
    endloop
  endfacet
  facet normal 0 0 1
    outer loop
      vertex -26.2953 81.2953 74.999
      vertex -27.5 82.5 74.999
      vertex -26.2953 -26.2953 74.999
    endloop
  endfacet
  facet normal -0 0 1
    outer loop
      vertex -27.5 82.5 74.999
      vertex -26.2953 81.2953 74.999
      vertex 82.5 82.5 74.999
    endloop
  endfacet
  facet normal -0 0 1
    outer loop
      vertex 81.2953 -26.2953 74.999
      vertex 82.5 -27.5 74.999
      vertex 81.2953 81.2953 74.999
    endloop
  endfacet
  facet normal -0 0 1
    outer loop
      vertex -26.2953 -26.2953 74.999
      vertex 82.5 -27.5 74.999
      vertex 81.2953 -26.2953 74.999
    endloop
  endfacet
  facet normal 0 0 1
    outer loop
      vertex -26.2953 -26.2953 74.999
      vertex -27.5 -27.5 74.999
      vertex 82.5 -27.5 74.999
    endloop
  endfacet
  facet normal 0 0 1
    outer loop
      vertex -27.5 -27.5 74.999
      vertex -26.2953 -26.2953 74.999
      vertex -27.5 82.5 74.999
    endloop
  endfacet
  facet normal 0 0 -1
    outer loop
      vertex -27.0273 27.1001 4.1
      vertex 27.1001 27.8999 4.1
      vertex 27.1001 27.1001 4.1
    endloop
  endfacet
  facet normal -0 0 -1
    outer loop
      vertex 27.1001 27.8999 4.1
      vertex -27.0273 27.1001 4.1
      vertex -27.0273 27.8999 4.1
    endloop
  endfacet
  facet normal 0 0 -1
    outer loop
      vertex 27.1001 27.1001 4.1
      vertex 27.8999 27.1001 4.1
      vertex 27.8999 -27.0273 4.1
    endloop
  endfacet
  facet normal 0 0 -1
    outer loop
      vertex 27.8999 27.1001 4.1
      vertex 27.1001 27.1001 4.1
      vertex 27.8999 27.8999 4.1
    endloop
  endfacet
  facet normal 0 0 -1
    outer loop
      vertex 27.1001 27.1001 4.1
      vertex 27.8999 -27.0273 4.1
      vertex 27.1001 -27.0273 4.1
    endloop
  endfacet
  facet normal 0 0 -1
    outer loop
      vertex 27.1001 27.8999 4.1
      vertex 27.8999 27.8999 4.1
      vertex 27.1001 27.1001 4.1
    endloop
  endfacet
  facet normal 0 0 -1
    outer loop
      vertex 27.8999 27.8999 4.1
      vertex 27.1001 27.8999 4.1
      vertex 27.8999 82.0273 4.1
    endloop
  endfacet
  facet normal -0 0 -1
    outer loop
      vertex 27.8999 82.0273 4.1
      vertex 27.1001 27.8999 4.1
      vertex 27.1001 82.0273 4.1
    endloop
  endfacet
  facet normal 0 0 -1
    outer loop
      vertex 27.8999 27.1001 4.1
      vertex 82.0273 27.8999 4.1
      vertex 82.0273 27.1001 4.1
    endloop
  endfacet
  facet normal -0 0 -1
    outer loop
      vertex 82.0273 27.8999 4.1
      vertex 27.8999 27.1001 4.1
      vertex 27.8999 27.8999 4.1
    endloop
  endfacet
  facet normal -0.999977 0 -0.00682392
    outer loop
      vertex -27.0273 27.8999 4.1
      vertex -27.0268 82.0268 4.02673
      vertex -27.0268 27.9732 4.02673
    endloop
  endfacet
  facet normal -0.999978 2.1209e-07 -0.00666725
    outer loop
      vertex -27.0268 82.0268 4.02673
      vertex -27.0273 27.8999 4.1
      vertex -27.5 82.5 74.999
    endloop
  endfacet
  facet normal -0.999978 0 -0.00666708
    outer loop
      vertex -27.0273 27.1001 4.1
      vertex -27.5 82.5 74.999
      vertex -27.0273 27.8999 4.1
    endloop
  endfacet
  facet normal -0.999977 0 -0.00682392
    outer loop
      vertex -27.0268 -27.0268 4.02673
      vertex -27.0273 27.1001 4.1
      vertex -27.0268 27.0268 4.02673
    endloop
  endfacet
  facet normal -0.999978 -2.1209e-07 -0.00666725
    outer loop
      vertex -27.0273 27.1001 4.1
      vertex -27.0268 -27.0268 4.02673
      vertex -27.5 -27.5 74.999
    endloop
  endfacet
  facet normal -0.999978 0 -0.00666708
    outer loop
      vertex -27.0273 27.1001 4.1
      vertex -27.5 -27.5 74.999
      vertex -27.5 82.5 74.999
    endloop
  endfacet
  facet normal 0.999978 2.1209e-07 -0.00666725
    outer loop
      vertex 82.0273 27.8999 4.1
      vertex 82.0268 82.0268 4.02673
      vertex 82.5 82.5 74.999
    endloop
  endfacet
  facet normal 0.999977 0 -0.00682392
    outer loop
      vertex 82.0268 82.0268 4.02673
      vertex 82.0273 27.8999 4.1
      vertex 82.0268 27.9732 4.02673
    endloop
  endfacet
  facet normal 0.999978 0 -0.00666708
    outer loop
      vertex 82.5 82.5 74.999
      vertex 82.0273 27.1001 4.1
      vertex 82.0273 27.8999 4.1
    endloop
  endfacet
  facet normal 0.999978 0 -0.00666708
    outer loop
      vertex 82.5 -27.5 74.999
      vertex 82.0273 27.1001 4.1
      vertex 82.5 82.5 74.999
    endloop
  endfacet
  facet normal 0.999978 -2.1209e-07 -0.00666725
    outer loop
      vertex 82.0268 -27.0268 4.02673
      vertex 82.0273 27.1001 4.1
      vertex 82.5 -27.5 74.999
    endloop
  endfacet
  facet normal 0.999977 0 -0.00682392
    outer loop
      vertex 82.0273 27.1001 4.1
      vertex 82.0268 -27.0268 4.02673
      vertex 82.0268 27.0268 4.02673
    endloop
  endfacet
  facet normal 0 -0.999978 -0.00666708
    outer loop
      vertex -27.5 -27.5 74.999
      vertex 27.1001 -27.0273 4.1
      vertex 82.5 -27.5 74.999
    endloop
  endfacet
  facet normal -2.1209e-07 -0.999978 -0.00666725
    outer loop
      vertex -27.0268 -27.0268 4.02673
      vertex 27.1001 -27.0273 4.1
      vertex -27.5 -27.5 74.999
    endloop
  endfacet
  facet normal 0 -0.999977 -0.00682392
    outer loop
      vertex 27.1001 -27.0273 4.1
      vertex -27.0268 -27.0268 4.02673
      vertex 27.0268 -27.0268 4.02673
    endloop
  endfacet
  facet normal -0 -0.999978 -0.00666708
    outer loop
      vertex 27.8999 -27.0273 4.1
      vertex 82.5 -27.5 74.999
      vertex 27.1001 -27.0273 4.1
    endloop
  endfacet
  facet normal -0 -0.999977 -0.00682392
    outer loop
      vertex 82.0268 -27.0268 4.02673
      vertex 27.8999 -27.0273 4.1
      vertex 27.9732 -27.0268 4.02673
    endloop
  endfacet
  facet normal 2.1209e-07 -0.999978 -0.00666725
    outer loop
      vertex 27.8999 -27.0273 4.1
      vertex 82.0268 -27.0268 4.02673
      vertex 82.5 -27.5 74.999
    endloop
  endfacet
  facet normal 0 0.999978 -0.00666708
    outer loop
      vertex 82.5 82.5 74.999
      vertex 27.8999 82.0273 4.1
      vertex -27.5 82.5 74.999
    endloop
  endfacet
  facet normal 2.1209e-07 0.999978 -0.00666725
    outer loop
      vertex 82.0268 82.0268 4.02673
      vertex 27.8999 82.0273 4.1
      vertex 82.5 82.5 74.999
    endloop
  endfacet
  facet normal 0 0.999977 -0.00682392
    outer loop
      vertex 27.8999 82.0273 4.1
      vertex 82.0268 82.0268 4.02673
      vertex 27.9732 82.0268 4.02673
    endloop
  endfacet
  facet normal 0 0.999978 -0.00666708
    outer loop
      vertex 27.1001 82.0273 4.1
      vertex -27.5 82.5 74.999
      vertex 27.8999 82.0273 4.1
    endloop
  endfacet
  facet normal 0 0.999977 -0.00682392
    outer loop
      vertex -27.0268 82.0268 4.02673
      vertex 27.1001 82.0273 4.1
      vertex 27.0268 82.0268 4.02673
    endloop
  endfacet
  facet normal -2.1209e-07 0.999978 -0.00666725
    outer loop
      vertex 27.1001 82.0273 4.1
      vertex -27.0268 82.0268 4.02673
      vertex -27.5 82.5 74.999
    endloop
  endfacet
  facet normal -0 0 1
    outer loop
      vertex -22.3 22.3 1.199
      vertex 22.3 -22.3 1.199
      vertex 22.3 22.3 1.199
    endloop
  endfacet
  facet normal 0 0 1
    outer loop
      vertex 22.3 -22.3 1.199
      vertex -22.3 22.3 1.199
      vertex -22.3 -22.3 1.199
    endloop
  endfacet
  facet normal -0.707195 0 0.707018
    outer loop
      vertex 26.299 -25.83 5.199
      vertex 22.3 22.3 1.199
      vertex 22.3 -22.3 1.199
    endloop
  endfacet
  facet normal -0.707159 8.21885e-05 0.707055
    outer loop
      vertex 26.299 -25.83 5.199
      vertex 22.3 -22.3 1.199
      vertex 25.8268 -25.8268 4.72673
    endloop
  endfacet
  facet normal -0.707195 0 0.707018
    outer loop
      vertex 22.3 22.3 1.199
      vertex 26.299 -25.83 5.199
      vertex 26.299 26.299 5.199
    endloop
  endfacet
  facet normal 0 0.7072 0.707014
    outer loop
      vertex 22.3 -22.3 1.199
      vertex -25.8268 -25.8268 4.72673
      vertex 25.8268 -25.8268 4.72673
    endloop
  endfacet
  facet normal 0 0.7072 0.707014
    outer loop
      vertex -25.8268 -25.8268 4.72673
      vertex 22.3 -22.3 1.199
      vertex -22.3 -22.3 1.199
    endloop
  endfacet
  facet normal 0.7072 0 0.707014
    outer loop
      vertex -25.8268 25.8268 4.72673
      vertex -22.3 -22.3 1.199
      vertex -22.3 22.3 1.199
    endloop
  endfacet
  facet normal 0.7072 0 0.707014
    outer loop
      vertex -22.3 -22.3 1.199
      vertex -25.8268 25.8268 4.72673
      vertex -25.8268 -25.8268 4.72673
    endloop
  endfacet
  facet normal 8.21885e-05 -0.707159 0.707055
    outer loop
      vertex -22.3 22.3 1.199
      vertex -25.83 26.299 5.199
      vertex -25.8268 25.8268 4.72673
    endloop
  endfacet
  facet normal 0 -0.707195 0.707018
    outer loop
      vertex 22.3 22.3 1.199
      vertex -25.83 26.299 5.199
      vertex -22.3 22.3 1.199
    endloop
  endfacet
  facet normal 0 -0.707195 0.707018
    outer loop
      vertex -25.83 26.299 5.199
      vertex 22.3 22.3 1.199
      vertex 26.299 26.299 5.199
    endloop
  endfacet
  facet normal -0 0 1
    outer loop
      vertex 32.7 22.3 1.199
      vertex 77.3 -22.3 1.199
      vertex 77.3 22.3 1.199
    endloop
  endfacet
  facet normal 0 0 1
    outer loop
      vertex 77.3 -22.3 1.199
      vertex 32.7 22.3 1.199
      vertex 32.7 -22.3 1.199
    endloop
  endfacet
  facet normal -0.7072 0 0.707014
    outer loop
      vertex 77.3 -22.3 1.199
      vertex 80.8268 25.8268 4.72673
      vertex 77.3 22.3 1.199
    endloop
  endfacet
  facet normal -0.7072 0 0.707014
    outer loop
      vertex 80.8268 25.8268 4.72673
      vertex 77.3 -22.3 1.199
      vertex 80.8268 -25.8268 4.72673
    endloop
  endfacet
  facet normal 0 0.7072 0.707014
    outer loop
      vertex 77.3 -22.3 1.199
      vertex 29.1732 -25.8268 4.72673
      vertex 80.8268 -25.8268 4.72673
    endloop
  endfacet
  facet normal 0 0.7072 0.707014
    outer loop
      vertex 29.1732 -25.8268 4.72673
      vertex 77.3 -22.3 1.199
      vertex 32.7 -22.3 1.199
    endloop
  endfacet
  facet normal 0.707195 -0 0.707018
    outer loop
      vertex 28.701 -25.83 5.199
      vertex 32.7 22.3 1.199
      vertex 28.701 26.299 5.199
    endloop
  endfacet
  facet normal 0.707195 0 0.707018
    outer loop
      vertex 32.7 22.3 1.199
      vertex 28.701 -25.83 5.199
      vertex 32.7 -22.3 1.199
    endloop
  endfacet
  facet normal 0.707159 8.21885e-05 0.707055
    outer loop
      vertex 32.7 -22.3 1.199
      vertex 28.701 -25.83 5.199
      vertex 29.1732 -25.8268 4.72673
    endloop
  endfacet
  facet normal 0 -0.707195 0.707018
    outer loop
      vertex 32.7 22.3 1.199
      vertex 80.83 26.299 5.199
      vertex 28.701 26.299 5.199
    endloop
  endfacet
  facet normal 0 -0.707195 0.707018
    outer loop
      vertex 77.3 22.3 1.199
      vertex 80.83 26.299 5.199
      vertex 32.7 22.3 1.199
    endloop
  endfacet
  facet normal -8.21885e-05 -0.707159 0.707055
    outer loop
      vertex 80.83 26.299 5.199
      vertex 77.3 22.3 1.199
      vertex 80.8268 25.8268 4.72673
    endloop
  endfacet
  facet normal -0 0 1
    outer loop
      vertex -22.3 77.3 1.199
      vertex 22.3 32.7 1.199
      vertex 22.3 77.3 1.199
    endloop
  endfacet
  facet normal 0 0 1
    outer loop
      vertex 22.3 32.7 1.199
      vertex -22.3 77.3 1.199
      vertex -22.3 32.7 1.199
    endloop
  endfacet
  facet normal -0.707159 -8.21885e-05 0.707055
    outer loop
      vertex 22.3 77.3 1.199
      vertex 26.299 80.83 5.199
      vertex 25.8268 80.8268 4.72673
    endloop
  endfacet
  facet normal -0.707195 0 0.707018
    outer loop
      vertex 22.3 32.7 1.199
      vertex 26.299 80.83 5.199
      vertex 22.3 77.3 1.199
    endloop
  endfacet
  facet normal -0.707195 0 0.707018
    outer loop
      vertex 26.299 80.83 5.199
      vertex 22.3 32.7 1.199
      vertex 26.299 28.701 5.199
    endloop
  endfacet
  facet normal 0 0.707195 0.707018
    outer loop
      vertex 22.3 32.7 1.199
      vertex -25.83 28.701 5.199
      vertex 26.299 28.701 5.199
    endloop
  endfacet
  facet normal -0 0.707195 0.707018
    outer loop
      vertex -22.3 32.7 1.199
      vertex -25.83 28.701 5.199
      vertex 22.3 32.7 1.199
    endloop
  endfacet
  facet normal 8.21885e-05 0.707159 0.707055
    outer loop
      vertex -25.83 28.701 5.199
      vertex -22.3 32.7 1.199
      vertex -25.8268 29.1732 4.72673
    endloop
  endfacet
  facet normal 0.7072 0 0.707014
    outer loop
      vertex -25.8268 80.8268 4.72673
      vertex -22.3 32.7 1.199
      vertex -22.3 77.3 1.199
    endloop
  endfacet
  facet normal 0.7072 0 0.707014
    outer loop
      vertex -22.3 32.7 1.199
      vertex -25.8268 80.8268 4.72673
      vertex -25.8268 29.1732 4.72673
    endloop
  endfacet
  facet normal 0 -0.7072 0.707014
    outer loop
      vertex -22.3 77.3 1.199
      vertex 25.8268 80.8268 4.72673
      vertex -25.8268 80.8268 4.72673
    endloop
  endfacet
  facet normal 0 -0.7072 0.707014
    outer loop
      vertex 25.8268 80.8268 4.72673
      vertex -22.3 77.3 1.199
      vertex 22.3 77.3 1.199
    endloop
  endfacet
  facet normal -0 0 1
    outer loop
      vertex 32.7 77.3 1.199
      vertex 77.3 32.7 1.199
      vertex 77.3 77.3 1.199
    endloop
  endfacet
  facet normal 0 0 1
    outer loop
      vertex 77.3 32.7 1.199
      vertex 32.7 77.3 1.199
      vertex 32.7 32.7 1.199
    endloop
  endfacet
  facet normal -0.7072 0 0.707014
    outer loop
      vertex 77.3 32.7 1.199
      vertex 80.8268 80.8268 4.72673
      vertex 77.3 77.3 1.199
    endloop
  endfacet
  facet normal -0.7072 0 0.707014
    outer loop
      vertex 80.8268 80.8268 4.72673
      vertex 77.3 32.7 1.199
      vertex 80.8268 29.1732 4.72673
    endloop
  endfacet
  facet normal -8.21885e-05 0.707159 0.707055
    outer loop
      vertex 77.3 32.7 1.199
      vertex 80.83 28.701 5.199
      vertex 80.8268 29.1732 4.72673
    endloop
  endfacet
  facet normal -0 0.707195 0.707018
    outer loop
      vertex 32.7 32.7 1.199
      vertex 80.83 28.701 5.199
      vertex 77.3 32.7 1.199
    endloop
  endfacet
  facet normal 0 0.707195 0.707018
    outer loop
      vertex 80.83 28.701 5.199
      vertex 32.7 32.7 1.199
      vertex 28.701 28.701 5.199
    endloop
  endfacet
  facet normal 0.707159 -8.21885e-05 0.707055
    outer loop
      vertex 28.701 80.83 5.199
      vertex 32.7 77.3 1.199
      vertex 29.1732 80.8268 4.72673
    endloop
  endfacet
  facet normal 0.707195 0 0.707018
    outer loop
      vertex 28.701 80.83 5.199
      vertex 32.7 32.7 1.199
      vertex 32.7 77.3 1.199
    endloop
  endfacet
  facet normal 0.707195 0 0.707018
    outer loop
      vertex 32.7 32.7 1.199
      vertex 28.701 80.83 5.199
      vertex 28.701 28.701 5.199
    endloop
  endfacet
  facet normal 0 -0.7072 0.707014
    outer loop
      vertex 32.7 77.3 1.199
      vertex 80.8268 80.8268 4.72673
      vertex 29.1732 80.8268 4.72673
    endloop
  endfacet
  facet normal 0 -0.7072 0.707014
    outer loop
      vertex 80.8268 80.8268 4.72673
      vertex 32.7 77.3 1.199
      vertex 77.3 77.3 1.199
    endloop
  endfacet
  facet normal -0 0 1
    outer loop
      vertex -25.83 28.701 5.199
      vertex 26.299 26.299 5.199
      vertex 26.299 28.701 5.199
    endloop
  endfacet
  facet normal 0 0 1
    outer loop
      vertex 26.299 26.299 5.199
      vertex -25.83 28.701 5.199
      vertex -25.83 26.299 5.199
    endloop
  endfacet
  facet normal 0 0 1
    outer loop
      vertex 26.299 28.701 5.199
      vertex 28.701 28.701 5.199
      vertex 28.701 80.83 5.199
    endloop
  endfacet
  facet normal 0 0 1
    outer loop
      vertex 28.701 28.701 5.199
      vertex 26.299 28.701 5.199
      vertex 28.701 26.299 5.199
    endloop
  endfacet
  facet normal 0 0 1
    outer loop
      vertex 26.299 28.701 5.199
      vertex 28.701 80.83 5.199
      vertex 26.299 80.83 5.199
    endloop
  endfacet
  facet normal 0 0 1
    outer loop
      vertex 26.299 26.299 5.199
      vertex 28.701 26.299 5.199
      vertex 26.299 28.701 5.199
    endloop
  endfacet
  facet normal 0 0 1
    outer loop
      vertex 28.701 26.299 5.199
      vertex 26.299 26.299 5.199
      vertex 28.701 -25.83 5.199
    endloop
  endfacet
  facet normal 0 0 1
    outer loop
      vertex 28.701 -25.83 5.199
      vertex 26.299 26.299 5.199
      vertex 26.299 -25.83 5.199
    endloop
  endfacet
  facet normal -0 0 1
    outer loop
      vertex 28.701 28.701 5.199
      vertex 80.83 26.299 5.199
      vertex 80.83 28.701 5.199
    endloop
  endfacet
  facet normal 0 0 1
    outer loop
      vertex 80.83 26.299 5.199
      vertex 28.701 28.701 5.199
      vertex 28.701 26.299 5.199
    endloop
  endfacet
  facet normal 0.999978 -9.86206e-07 0.00666678
    outer loop
      vertex -25.83 28.701 5.199
      vertex -25.8268 80.8268 4.72673
      vertex -26.2953 81.2953 74.999
    endloop
  endfacet
  facet normal 0.999977 0 0.00677563
    outer loop
      vertex -25.8268 80.8268 4.72673
      vertex -25.83 28.701 5.199
      vertex -25.8268 29.1732 4.72673
    endloop
  endfacet
  facet normal 0.999978 0 0.00666604
    outer loop
      vertex -26.2953 81.2953 74.999
      vertex -25.83 26.299 5.199
      vertex -25.83 28.701 5.199
    endloop
  endfacet
  facet normal 0.999978 -0 0.00666604
    outer loop
      vertex -26.2953 -26.2953 74.999
      vertex -25.83 26.299 5.199
      vertex -26.2953 81.2953 74.999
    endloop
  endfacet
  facet normal 0.999978 9.86206e-07 0.00666678
    outer loop
      vertex -25.8268 -25.8268 4.72673
      vertex -25.83 26.299 5.199
      vertex -26.2953 -26.2953 74.999
    endloop
  endfacet
  facet normal 0.999977 0 0.00677563
    outer loop
      vertex -25.83 26.299 5.199
      vertex -25.8268 -25.8268 4.72673
      vertex -25.8268 25.8268 4.72673
    endloop
  endfacet
  facet normal -0.999977 0 0.00677563
    outer loop
      vertex 80.83 28.701 5.199
      vertex 80.8268 80.8268 4.72673
      vertex 80.8268 29.1732 4.72673
    endloop
  endfacet
  facet normal -0.999978 -9.86206e-07 0.00666678
    outer loop
      vertex 80.8268 80.8268 4.72673
      vertex 80.83 28.701 5.199
      vertex 81.2953 81.2953 74.999
    endloop
  endfacet
  facet normal -0.999978 0 0.00666604
    outer loop
      vertex 80.83 26.299 5.199
      vertex 81.2953 81.2953 74.999
      vertex 80.83 28.701 5.199
    endloop
  endfacet
  facet normal -0.999977 0 0.00677563
    outer loop
      vertex 80.8268 -25.8268 4.72673
      vertex 80.83 26.299 5.199
      vertex 80.8268 25.8268 4.72673
    endloop
  endfacet
  facet normal -0.999978 9.86206e-07 0.00666678
    outer loop
      vertex 80.83 26.299 5.199
      vertex 80.8268 -25.8268 4.72673
      vertex 81.2953 -26.2953 74.999
    endloop
  endfacet
  facet normal -0.999978 0 0.00666604
    outer loop
      vertex 80.83 26.299 5.199
      vertex 81.2953 -26.2953 74.999
      vertex 81.2953 81.2953 74.999
    endloop
  endfacet
  facet normal 0 0.999978 0.00666118
    outer loop
      vertex 81.2953 -26.2953 74.999
      vertex 42.5 -26.262 70
      vertex -26.2953 -26.2953 74.999
    endloop
  endfacet
  facet normal -2.834e-07 0.999978 0.00666338
    outer loop
      vertex 81.2953 -26.2953 74.999
      vertex 42.5 -26.1954 60.0053
      vertex 42.5 -26.262 70
    endloop
  endfacet
  facet normal 0.00257505 0.999997 0
    outer loop
      vertex 81.2953 -26.2953 74.999
      vertex 42.5 -26.1954 60.005
      vertex 42.5 -26.1954 60.0053
    endloop
  endfacet
  facet normal 0.00319185 0.999994 -0.00159592
    outer loop
      vertex 81.2953 -26.2953 74.999
      vertex 42.4999 -26.1954 60.0048
      vertex 42.5 -26.1954 60.005
    endloop
  endfacet
  facet normal 0.00319185 0.999994 -0.00159592
    outer loop
      vertex 81.2953 -26.2953 74.999
      vertex 42.4998 -26.1954 60.0046
      vertex 42.4999 -26.1954 60.0048
    endloop
  endfacet
  facet normal -1.7198e-06 0.999978 0.00666679
    outer loop
      vertex 80.8268 -25.8268 4.72673
      vertex 42.4998 -26.1954 60.0046
      vertex 81.2953 -26.2953 74.999
    endloop
  endfacet
  facet normal -0.00393777 0.999984 0.00393777
    outer loop
      vertex 42.4998 -26.1954 60.0046
      vertex 80.8268 -25.8268 4.72673
      vertex 42.4997 -26.1954 60.0045
    endloop
  endfacet
  facet normal -0.00393777 0.999984 0.00393777
    outer loop
      vertex 42.4997 -26.1954 60.0045
      vertex 80.8268 -25.8268 4.72673
      vertex 42.4996 -26.1954 60.0044
    endloop
  endfacet
  facet normal 0 0.999978 0.0066671
    outer loop
      vertex 42.4991 -26.1954 60.0042
      vertex 28.701 -25.83 5.199
      vertex 12.5009 -26.1954 60.0042
    endloop
  endfacet
  facet normal 0 0.999978 0.0066671
    outer loop
      vertex 42.4992 -26.1954 60.0042
      vertex 28.701 -25.83 5.199
      vertex 42.4991 -26.1954 60.0042
    endloop
  endfacet
  facet normal -0.00381357 0.999964 0.00762714
    outer loop
      vertex 42.4994 -26.1954 60.0043
      vertex 28.701 -25.83 5.199
      vertex 42.4992 -26.1954 60.0042
    endloop
  endfacet
  facet normal -0.00247574 0.999985 0.00495148
    outer loop
      vertex 42.4996 -26.1954 60.0044
      vertex 80.8268 -25.8268 4.72673
      vertex 42.4994 -26.1954 60.0043
    endloop
  endfacet
  facet normal -0 0.999978 0.00666802
    outer loop
      vertex 29.1732 -25.8268 4.72673
      vertex 42.4994 -26.1954 60.0043
      vertex 80.8268 -25.8268 4.72673
    endloop
  endfacet
  facet normal -8.67228e-05 0.999978 0.00668892
    outer loop
      vertex 42.4994 -26.1954 60.0043
      vertex 29.1732 -25.8268 4.72673
      vertex 28.701 -25.83 5.199
    endloop
  endfacet
  facet normal -0 0.999978 0.00666118
    outer loop
      vertex 12.5 -26.262 70
      vertex -26.2953 -26.2953 74.999
      vertex 42.5 -26.262 70
    endloop
  endfacet
  facet normal 2.834e-07 0.999978 0.00666338
    outer loop
      vertex 12.5 -26.1954 60.0053
      vertex -26.2953 -26.2953 74.999
      vertex 12.5 -26.262 70
    endloop
  endfacet
  facet normal -0.00257505 0.999997 0
    outer loop
      vertex 12.5 -26.1954 60.005
      vertex -26.2953 -26.2953 74.999
      vertex 12.5 -26.1954 60.0053
    endloop
  endfacet
  facet normal -0.00319185 0.999994 -0.00159592
    outer loop
      vertex 12.5001 -26.1954 60.0048
      vertex -26.2953 -26.2953 74.999
      vertex 12.5 -26.1954 60.005
    endloop
  endfacet
  facet normal -0.00319185 0.999994 -0.00159592
    outer loop
      vertex 12.5002 -26.1954 60.0046
      vertex -26.2953 -26.2953 74.999
      vertex 12.5001 -26.1954 60.0048
    endloop
  endfacet
  facet normal 0.00393777 0.999984 0.00393777
    outer loop
      vertex -25.8268 -25.8268 4.72673
      vertex 12.5002 -26.1954 60.0046
      vertex 12.5003 -26.1954 60.0045
    endloop
  endfacet
  facet normal 0.00393777 0.999984 0.00393777
    outer loop
      vertex -25.8268 -25.8268 4.72673
      vertex 12.5003 -26.1954 60.0045
      vertex 12.5004 -26.1954 60.0044
    endloop
  endfacet
  facet normal 0.00247574 0.999985 0.00495148
    outer loop
      vertex -25.8268 -25.8268 4.72673
      vertex 12.5004 -26.1954 60.0044
      vertex 12.5006 -26.1954 60.0043
    endloop
  endfacet
  facet normal -0 0.999978 0.0066671
    outer loop
      vertex 26.299 -25.83 5.199
      vertex 12.5009 -26.1954 60.0042
      vertex 28.701 -25.83 5.199
    endloop
  endfacet
  facet normal 0 0.999978 0.0066671
    outer loop
      vertex 12.5009 -26.1954 60.0042
      vertex 26.299 -25.83 5.199
      vertex 12.5008 -26.1954 60.0042
    endloop
  endfacet
  facet normal 0.00381357 0.999964 0.00762714
    outer loop
      vertex 12.5008 -26.1954 60.0042
      vertex 26.299 -25.83 5.199
      vertex 12.5006 -26.1954 60.0043
    endloop
  endfacet
  facet normal 8.67228e-05 0.999978 0.00668892
    outer loop
      vertex 25.8268 -25.8268 4.72673
      vertex 12.5006 -26.1954 60.0043
      vertex 26.299 -25.83 5.199
    endloop
  endfacet
  facet normal 0 0.999978 0.00666802
    outer loop
      vertex 12.5006 -26.1954 60.0043
      vertex 25.8268 -25.8268 4.72673
      vertex -25.8268 -25.8268 4.72673
    endloop
  endfacet
  facet normal 1.7198e-06 0.999978 0.00666679
    outer loop
      vertex 12.5002 -26.1954 60.0046
      vertex -25.8268 -25.8268 4.72673
      vertex -26.2953 -26.2953 74.999
    endloop
  endfacet
  facet normal 0 -0.999978 0.00666604
    outer loop
      vertex -26.2953 81.2953 74.999
      vertex 26.299 80.83 5.199
      vertex 81.2953 81.2953 74.999
    endloop
  endfacet
  facet normal 9.86206e-07 -0.999978 0.00666678
    outer loop
      vertex -25.8268 80.8268 4.72673
      vertex 26.299 80.83 5.199
      vertex -26.2953 81.2953 74.999
    endloop
  endfacet
  facet normal 0 -0.999977 0.00677563
    outer loop
      vertex 26.299 80.83 5.199
      vertex -25.8268 80.8268 4.72673
      vertex 25.8268 80.8268 4.72673
    endloop
  endfacet
  facet normal 0 -0.999978 0.00666604
    outer loop
      vertex 28.701 80.83 5.199
      vertex 81.2953 81.2953 74.999
      vertex 26.299 80.83 5.199
    endloop
  endfacet
  facet normal 0 -0.999977 0.00677563
    outer loop
      vertex 80.8268 80.8268 4.72673
      vertex 28.701 80.83 5.199
      vertex 29.1732 80.8268 4.72673
    endloop
  endfacet
  facet normal -9.86206e-07 -0.999978 0.00666678
    outer loop
      vertex 28.701 80.83 5.199
      vertex 80.8268 80.8268 4.72673
      vertex 81.2953 81.2953 74.999
    endloop
  endfacet
  facet normal 0 0 1
    outer loop
      vertex 40.5 -16.3 70
      vertex 42.5 -18.3 70
      vertex 42.4616 -17.9098 70
    endloop
  endfacet
  facet normal 0 0 1
    outer loop
      vertex 40.5 -16.3 70
      vertex 42.4616 -17.9098 70
      vertex 42.3478 -17.5346 70
    endloop
  endfacet
  facet normal 0 0 1
    outer loop
      vertex 40.5 -16.3 70
      vertex 42.3478 -17.5346 70
      vertex 42.1629 -17.1889 70
    endloop
  endfacet
  facet normal 0 0 1
    outer loop
      vertex 40.5 -16.3 70
      vertex 42.1629 -17.1889 70
      vertex 41.9142 -16.8858 70
    endloop
  endfacet
  facet normal 0 0 1
    outer loop
      vertex 40.5 -16.3 70
      vertex 41.9142 -16.8858 70
      vertex 41.6111 -16.6371 70
    endloop
  endfacet
  facet normal 0 0 1
    outer loop
      vertex 40.5 -16.3 70
      vertex 41.6111 -16.6371 70
      vertex 41.2654 -16.4522 70
    endloop
  endfacet
  facet normal 0 0 1
    outer loop
      vertex 40.5 -16.3 70
      vertex 41.2654 -16.4522 70
      vertex 40.8902 -16.3384 70
    endloop
  endfacet
  facet normal 0 0 1
    outer loop
      vertex 42.5 -18.3 70
      vertex 40.5 -16.3 70
      vertex 42.5 -26.262 70
    endloop
  endfacet
  facet normal -0 0 1
    outer loop
      vertex 14.5 -16.3 70
      vertex 42.5 -26.262 70
      vertex 40.5 -16.3 70
    endloop
  endfacet
  facet normal 0 0 1
    outer loop
      vertex 12.5 -18.3 70
      vertex 14.5 -16.3 70
      vertex 14.1098 -16.3384 70
    endloop
  endfacet
  facet normal 0 0 1
    outer loop
      vertex 12.5 -18.3 70
      vertex 14.1098 -16.3384 70
      vertex 13.7346 -16.4522 70
    endloop
  endfacet
  facet normal 0 0 1
    outer loop
      vertex 12.5 -18.3 70
      vertex 13.7346 -16.4522 70
      vertex 13.3889 -16.6371 70
    endloop
  endfacet
  facet normal 0 0 1
    outer loop
      vertex 12.5 -18.3 70
      vertex 13.3889 -16.6371 70
      vertex 13.0858 -16.8858 70
    endloop
  endfacet
  facet normal 0 0 1
    outer loop
      vertex 12.5 -18.3 70
      vertex 13.0858 -16.8858 70
      vertex 12.8371 -17.1889 70
    endloop
  endfacet
  facet normal 0 0 1
    outer loop
      vertex 12.5 -18.3 70
      vertex 12.8371 -17.1889 70
      vertex 12.6522 -17.5346 70
    endloop
  endfacet
  facet normal 0 0 1
    outer loop
      vertex 12.5 -18.3 70
      vertex 12.6522 -17.5346 70
      vertex 12.5384 -17.9098 70
    endloop
  endfacet
  facet normal 0 0 1
    outer loop
      vertex 14.5 -16.3 70
      vertex 12.5 -18.3 70
      vertex 12.5 -26.262 70
    endloop
  endfacet
  facet normal 0 0 1
    outer loop
      vertex 14.5 -16.3 70
      vertex 12.5 -26.262 70
      vertex 42.5 -26.262 70
    endloop
  endfacet
  facet normal 0 1 -0
    outer loop
      vertex 40.5 -16.3 69
      vertex 14.5 -16.3 70
      vertex 40.5 -16.3 70
    endloop
  endfacet
  facet normal 0 1 0
    outer loop
      vertex 14.5 -16.3 70
      vertex 40.5 -16.3 69
      vertex 14.5 -16.3 69
    endloop
  endfacet
  facet normal 1 -0 0
    outer loop
      vertex 42.5 -26.262 70
      vertex 42.5 -18.3 69
      vertex 42.5 -18.3 70
    endloop
  endfacet
  facet normal 1 0 0
    outer loop
      vertex 42.5 -18.3 69
      vertex 42.5 -26.262 70
      vertex 42.5 -26.1954 60.0053
    endloop
  endfacet
  facet normal -0.995193 0.097938 0
    outer loop
      vertex 12.5 -18.3 69
      vertex 12.5384 -17.9098 70
      vertex 12.5384 -17.9098 69
    endloop
  endfacet
  facet normal -0.995193 0.097938 0
    outer loop
      vertex 12.5384 -17.9098 70
      vertex 12.5 -18.3 69
      vertex 12.5 -18.3 70
    endloop
  endfacet
  facet normal 0.807361 0.431822 -0.402117
    outer loop
      vertex 42.4999 -26.1954 60.0048
      vertex 42.1629 -17.1889 69
      vertex 42.3478 -17.5346 69
    endloop
  endfacet
  facet normal 0.806309 0.432819 -0.403155
    outer loop
      vertex 42.1629 -17.1889 69
      vertex 42.4999 -26.1954 60.0048
      vertex 42.4998 -26.1954 60.0046
    endloop
  endfacet
  facet normal -0.0667742 0.678523 -0.731538
    outer loop
      vertex 12.5009 -26.1954 60.0042
      vertex 14.1098 -16.3384 69
      vertex 14.5 -16.3 69
    endloop
  endfacet
  facet normal 0 0.674103 -0.738637
    outer loop
      vertex 14.1098 -16.3384 69
      vertex 12.5009 -26.1954 60.0042
      vertex 12.5008 -26.1954 60.0042
    endloop
  endfacet
  facet normal 0.956951 0.290248 0
    outer loop
      vertex 42.4616 -17.9098 70
      vertex 42.3478 -17.5346 69
      vertex 42.3478 -17.5346 70
    endloop
  endfacet
  facet normal 0.956951 0.290248 0
    outer loop
      vertex 42.3478 -17.5346 69
      vertex 42.4616 -17.9098 70
      vertex 42.4616 -17.9098 69
    endloop
  endfacet
  facet normal -0.097938 0.995193 0
    outer loop
      vertex 14.5 -16.3 69
      vertex 14.1098 -16.3384 70
      vertex 14.5 -16.3 70
    endloop
  endfacet
  facet normal -0.097938 0.995193 0
    outer loop
      vertex 14.1098 -16.3384 70
      vertex 14.5 -16.3 69
      vertex 14.1098 -16.3384 69
    endloop
  endfacet
  facet normal 0 0.672672 -0.739941
    outer loop
      vertex 42.4991 -26.1954 60.0042
      vertex 14.5 -16.3 69
      vertex 40.5 -16.3 69
    endloop
  endfacet
  facet normal 0 0.672672 -0.739941
    outer loop
      vertex 14.5 -16.3 69
      vertex 42.4991 -26.1954 60.0042
      vertex 12.5009 -26.1954 60.0042
    endloop
  endfacet
  facet normal -0.471634 0.881795 0
    outer loop
      vertex 13.7346 -16.4522 69
      vertex 13.3889 -16.6371 70
      vertex 13.7346 -16.4522 70
    endloop
  endfacet
  facet normal -0.471634 0.881795 0
    outer loop
      vertex 13.3889 -16.6371 70
      vertex 13.7346 -16.4522 69
      vertex 13.3889 -16.6371 69
    endloop
  endfacet
  facet normal 0.661101 0.542448 -0.518359
    outer loop
      vertex 42.1629 -17.1889 69
      vertex 42.4997 -26.1954 60.0045
      vertex 41.9142 -16.8858 69
    endloop
  endfacet
  facet normal 0.570391 0.591024 -0.570391
    outer loop
      vertex 42.4997 -26.1954 60.0045
      vertex 42.1629 -17.1889 69
      vertex 42.4998 -26.1954 60.0046
    endloop
  endfacet
  facet normal -0.806309 0.432819 -0.403155
    outer loop
      vertex 12.5001 -26.1954 60.0048
      vertex 12.8371 -17.1889 69
      vertex 12.5002 -26.1954 60.0046
    endloop
  endfacet
  facet normal -0.807361 0.431822 -0.402117
    outer loop
      vertex 12.8371 -17.1889 69
      vertex 12.5001 -26.1954 60.0048
      vertex 12.6522 -17.5346 69
    endloop
  endfacet
  facet normal -0.352244 0.658577 -0.664982
    outer loop
      vertex 12.5006 -26.1954 60.0043
      vertex 13.3889 -16.6371 69
      vertex 13.7346 -16.4522 69
    endloop
  endfacet
  facet normal -0.335173 0.662039 -0.670346
    outer loop
      vertex 13.3889 -16.6371 69
      vertex 12.5006 -26.1954 60.0043
      vertex 12.5004 -26.1954 60.0044
    endloop
  endfacet
  facet normal -0.77307 0.634321 0
    outer loop
      vertex 12.8371 -17.1889 69
      vertex 13.0858 -16.8858 70
      vertex 13.0858 -16.8858 69
    endloop
  endfacet
  facet normal -0.77307 0.634321 0
    outer loop
      vertex 13.0858 -16.8858 70
      vertex 12.8371 -17.1889 69
      vertex 12.8371 -17.1889 70
    endloop
  endfacet
  facet normal 0.335322 0.661661 -0.670644
    outer loop
      vertex 42.4992 -26.1954 60.0042
      vertex 41.2654 -16.4522 69
      vertex 42.4994 -26.1954 60.0043
    endloop
  endfacet
  facet normal 0.20558 0.677801 -0.705919
    outer loop
      vertex 41.2654 -16.4522 69
      vertex 42.4992 -26.1954 60.0042
      vertex 40.8902 -16.3384 69
    endloop
  endfacet
  facet normal 0.995193 0.097938 0
    outer loop
      vertex 42.5 -18.3 70
      vertex 42.4616 -17.9098 69
      vertex 42.4616 -17.9098 70
    endloop
  endfacet
  facet normal 0.995193 0.097938 0
    outer loop
      vertex 42.4616 -17.9098 69
      vertex 42.5 -18.3 70
      vertex 42.5 -18.3 69
    endloop
  endfacet
  facet normal 0.881795 0.471634 0
    outer loop
      vertex 42.3478 -17.5346 70
      vertex 42.1629 -17.1889 69
      vertex 42.1629 -17.1889 70
    endloop
  endfacet
  facet normal 0.881795 0.471634 0
    outer loop
      vertex 42.1629 -17.1889 69
      vertex 42.3478 -17.5346 70
      vertex 42.3478 -17.5346 69
    endloop
  endfacet
  facet normal 0.290248 0.956951 -0
    outer loop
      vertex 41.2654 -16.4522 69
      vertex 40.8902 -16.3384 70
      vertex 41.2654 -16.4522 70
    endloop
  endfacet
  facet normal 0.290248 0.956951 0
    outer loop
      vertex 40.8902 -16.3384 70
      vertex 41.2654 -16.4522 69
      vertex 40.8902 -16.3384 69
    endloop
  endfacet
  facet normal 0.991535 0.097578 -0.0856524
    outer loop
      vertex 42.5 -26.1954 60.0053
      vertex 42.4616 -17.9098 69
      vertex 42.5 -18.3 69
    endloop
  endfacet
  facet normal 0.999989 0.0046345 0
    outer loop
      vertex 42.4616 -17.9098 69
      vertex 42.5 -26.1954 60.0053
      vertex 42.5 -26.1954 60.005
    endloop
  endfacet
  facet normal 0.925417 0.280684 -0.254597
    outer loop
      vertex 42.5 -26.1954 60.005
      vertex 42.3478 -17.5346 69
      vertex 42.4616 -17.9098 69
    endloop
  endfacet
  facet normal 0.806287 0.432869 -0.403144
    outer loop
      vertex 42.3478 -17.5346 69
      vertex 42.5 -26.1954 60.005
      vertex 42.4999 -26.1954 60.0048
    endloop
  endfacet
  facet normal -0.806287 0.432869 -0.403144
    outer loop
      vertex 12.5 -26.1954 60.005
      vertex 12.6522 -17.5346 69
      vertex 12.5001 -26.1954 60.0048
    endloop
  endfacet
  facet normal -0.925417 0.280684 -0.254597
    outer loop
      vertex 12.6522 -17.5346 69
      vertex 12.5 -26.1954 60.005
      vertex 12.5384 -17.9098 69
    endloop
  endfacet
  facet normal -0.956951 0.290248 0
    outer loop
      vertex 12.5384 -17.9098 69
      vertex 12.6522 -17.5346 70
      vertex 12.6522 -17.5346 69
    endloop
  endfacet
  facet normal -0.956951 0.290248 0
    outer loop
      vertex 12.6522 -17.5346 70
      vertex 12.5384 -17.9098 69
      vertex 12.5384 -17.9098 70
    endloop
  endfacet
  facet normal 0.471634 0.881795 -0
    outer loop
      vertex 41.6111 -16.6371 69
      vertex 41.2654 -16.4522 70
      vertex 41.6111 -16.6371 70
    endloop
  endfacet
  facet normal 0.471634 0.881795 0
    outer loop
      vertex 41.2654 -16.4522 70
      vertex 41.6111 -16.6371 69
      vertex 41.2654 -16.4522 69
    endloop
  endfacet
  facet normal 0.335173 0.662039 -0.670346
    outer loop
      vertex 42.4994 -26.1954 60.0043
      vertex 41.6111 -16.6371 69
      vertex 42.4996 -26.1954 60.0044
    endloop
  endfacet
  facet normal 0.352244 0.658577 -0.664982
    outer loop
      vertex 41.6111 -16.6371 69
      vertex 42.4994 -26.1954 60.0043
      vertex 41.2654 -16.4522 69
    endloop
  endfacet
  facet normal -0.20558 0.677801 -0.705919
    outer loop
      vertex 12.5008 -26.1954 60.0042
      vertex 13.7346 -16.4522 69
      vertex 14.1098 -16.3384 69
    endloop
  endfacet
  facet normal -0.335322 0.661661 -0.670644
    outer loop
      vertex 13.7346 -16.4522 69
      vertex 12.5008 -26.1954 60.0042
      vertex 12.5006 -26.1954 60.0043
    endloop
  endfacet
  facet normal -0.290248 0.956951 0
    outer loop
      vertex 14.1098 -16.3384 69
      vertex 13.7346 -16.4522 70
      vertex 14.1098 -16.3384 70
    endloop
  endfacet
  facet normal -0.290248 0.956951 0
    outer loop
      vertex 13.7346 -16.4522 70
      vertex 14.1098 -16.3384 69
      vertex 13.7346 -16.4522 69
    endloop
  endfacet
  facet normal 0.097938 0.995193 -0
    outer loop
      vertex 40.8902 -16.3384 69
      vertex 40.5 -16.3 70
      vertex 40.8902 -16.3384 70
    endloop
  endfacet
  facet normal 0.097938 0.995193 0
    outer loop
      vertex 40.5 -16.3 70
      vertex 40.8902 -16.3384 69
      vertex 40.5 -16.3 69
    endloop
  endfacet
  facet normal -0.999989 0.0046345 0
    outer loop
      vertex 12.5 -26.1954 60.0053
      vertex 12.5384 -17.9098 69
      vertex 12.5 -26.1954 60.005
    endloop
  endfacet
  facet normal -0.991535 0.097578 -0.0856524
    outer loop
      vertex 12.5384 -17.9098 69
      vertex 12.5 -26.1954 60.0053
      vertex 12.5 -18.3 69
    endloop
  endfacet
  facet normal -1 0 0
    outer loop
      vertex 12.5 -26.262 70
      vertex 12.5 -18.3 69
      vertex 12.5 -26.1954 60.0053
    endloop
  endfacet
  facet normal -1 0 0
    outer loop
      vertex 12.5 -18.3 69
      vertex 12.5 -26.262 70
      vertex 12.5 -18.3 70
    endloop
  endfacet
  facet normal -0.634321 0.77307 0
    outer loop
      vertex 13.3889 -16.6371 69
      vertex 13.0858 -16.8858 70
      vertex 13.3889 -16.6371 70
    endloop
  endfacet
  facet normal -0.634321 0.77307 0
    outer loop
      vertex 13.0858 -16.8858 70
      vertex 13.3889 -16.6371 69
      vertex 13.0858 -16.8858 69
    endloop
  endfacet
  facet normal -0.50532 0.615852 -0.604466
    outer loop
      vertex 13.3889 -16.6371 69
      vertex 12.5003 -26.1954 60.0045
      vertex 13.0858 -16.8858 69
    endloop
  endfacet
  facet normal -0.570792 0.590248 -0.570792
    outer loop
      vertex 12.5003 -26.1954 60.0045
      vertex 13.3889 -16.6371 69
      vertex 12.5004 -26.1954 60.0044
    endloop
  endfacet
  facet normal -0.661101 0.542448 -0.518359
    outer loop
      vertex 12.5003 -26.1954 60.0045
      vertex 12.8371 -17.1889 69
      vertex 13.0858 -16.8858 69
    endloop
  endfacet
  facet normal -0.570391 0.591024 -0.570391
    outer loop
      vertex 12.8371 -17.1889 69
      vertex 12.5003 -26.1954 60.0045
      vertex 12.5002 -26.1954 60.0046
    endloop
  endfacet
  facet normal -0.881795 0.471634 0
    outer loop
      vertex 12.6522 -17.5346 69
      vertex 12.8371 -17.1889 70
      vertex 12.8371 -17.1889 69
    endloop
  endfacet
  facet normal -0.881795 0.471634 0
    outer loop
      vertex 12.8371 -17.1889 70
      vertex 12.6522 -17.5346 69
      vertex 12.6522 -17.5346 70
    endloop
  endfacet
  facet normal 0.634321 0.77307 -0
    outer loop
      vertex 41.9142 -16.8858 69
      vertex 41.6111 -16.6371 70
      vertex 41.9142 -16.8858 70
    endloop
  endfacet
  facet normal 0.634321 0.77307 0
    outer loop
      vertex 41.6111 -16.6371 70
      vertex 41.9142 -16.8858 69
      vertex 41.6111 -16.6371 69
    endloop
  endfacet
  facet normal 0.50532 0.615852 -0.604466
    outer loop
      vertex 42.4997 -26.1954 60.0045
      vertex 41.6111 -16.6371 69
      vertex 41.9142 -16.8858 69
    endloop
  endfacet
  facet normal 0.570792 0.590248 -0.570792
    outer loop
      vertex 41.6111 -16.6371 69
      vertex 42.4997 -26.1954 60.0045
      vertex 42.4996 -26.1954 60.0044
    endloop
  endfacet
  facet normal 0 0.674103 -0.738637
    outer loop
      vertex 42.4991 -26.1954 60.0042
      vertex 40.8902 -16.3384 69
      vertex 42.4992 -26.1954 60.0042
    endloop
  endfacet
  facet normal 0.0667742 0.678523 -0.731538
    outer loop
      vertex 40.8902 -16.3384 69
      vertex 42.4991 -26.1954 60.0042
      vertex 40.5 -16.3 69
    endloop
  endfacet
  facet normal 0.77307 0.634321 0
    outer loop
      vertex 42.1629 -17.1889 70
      vertex 41.9142 -16.8858 69
      vertex 41.9142 -16.8858 70
    endloop
  endfacet
  facet normal 0.77307 0.634321 0
    outer loop
      vertex 41.9142 -16.8858 69
      vertex 42.1629 -17.1889 70
      vertex 42.1629 -17.1889 69
    endloop
  endfacet
endsolid OpenSCAD_Model
