solid OpenSCAD_Model
  facet normal 1 -0 0
    outer loop
      vertex 8 -8 0.499
      vertex 8 8 0
      vertex 8 8 0.499
    endloop
  endfacet
  facet normal 1 0 0
    outer loop
      vertex 8 8 0
      vertex 8 -8 0.499
      vertex 8 -8 0
    endloop
  endfacet
  facet normal 0 0 -1
    outer loop
      vertex -8 -8 0
      vertex 8 8 0
      vertex 8 -8 0
    endloop
  endfacet
  facet normal -0 0 -1
    outer loop
      vertex 8 8 0
      vertex -8 -8 0
      vertex -8 8 0
    endloop
  endfacet
  facet normal -1 0 0
    outer loop
      vertex -8 -8 0
      vertex -8 8 0.499
      vertex -8 8 0
    endloop
  endfacet
  facet normal -1 -0 0
    outer loop
      vertex -8 8 0.499
      vertex -8 -8 0
      vertex -8 -8 0.499
    endloop
  endfacet
  facet normal 0 1 -0
    outer loop
      vertex 8 8 0
      vertex -8 8 0.499
      vertex 8 8 0.499
    endloop
  endfacet
  facet normal 0 1 0
    outer loop
      vertex -8 8 0.499
      vertex 8 8 0
      vertex -8 8 0
    endloop
  endfacet
  facet normal 0 -1 0
    outer loop
      vertex -8 -8 0
      vertex 8 -8 0.499
      vertex -8 -8 0.499
    endloop
  endfacet
  facet normal 0 -1 -0
    outer loop
      vertex 8 -8 0.499
      vertex -8 -8 0
      vertex 8 -8 0
    endloop
  endfacet
  facet normal 0.707311 -5.71605e-05 -0.706903
    outer loop
      vertex 9.6002 9.53182 2.1
      vertex 8 8 0.499
      vertex 9.53077 9.53077 2.03053
    endloop
  endfacet
  facet normal 0.707283 0 -0.70693
    outer loop
      vertex 9.6002 9.53182 2.1
      vertex 8 -8 0.499
      vertex 8 8 0.499
    endloop
  endfacet
  facet normal 0.707283 0 -0.70693
    outer loop
      vertex 9.6002 -9.53182 2.1
      vertex 8 -8 0.499
      vertex 9.6002 9.53182 2.1
    endloop
  endfacet
  facet normal 0.707311 5.71605e-05 -0.706903
    outer loop
      vertex 8 -8 0.499
      vertex 9.6002 -9.53182 2.1
      vertex 9.53077 -9.53077 2.03053
    endloop
  endfacet
  facet normal 0 -0.707282 -0.706931
    outer loop
      vertex -8 -8 0.499
      vertex 9.53077 -9.53077 2.03053
      vertex -9.53077 -9.53077 2.03053
    endloop
  endfacet
  facet normal 0 -0.707282 -0.706931
    outer loop
      vertex 9.53077 -9.53077 2.03053
      vertex -8 -8 0.499
      vertex 8 -8 0.499
    endloop
  endfacet
  facet normal -0.707282 0 -0.706931
    outer loop
      vertex -8 -8 0.499
      vertex -9.53077 9.53077 2.03053
      vertex -8 8 0.499
    endloop
  endfacet
  facet normal -0.707282 -0 -0.706931
    outer loop
      vertex -9.53077 9.53077 2.03053
      vertex -8 -8 0.499
      vertex -9.53077 -9.53077 2.03053
    endloop
  endfacet
  facet normal 0 0.707282 -0.706931
    outer loop
      vertex 8 8 0.499
      vertex -9.53077 9.53077 2.03053
      vertex 9.53077 9.53077 2.03053
    endloop
  endfacet
  facet normal 0 0.707282 -0.706931
    outer loop
      vertex -9.53077 9.53077 2.03053
      vertex 8 8 0.499
      vertex -8 8 0.499
    endloop
  endfacet
  facet normal 1 -0 0
    outer loop
      vertex 28 -8 0.499
      vertex 28 8 0
      vertex 28 8 0.499
    endloop
  endfacet
  facet normal 1 0 0
    outer loop
      vertex 28 8 0
      vertex 28 -8 0.499
      vertex 28 -8 0
    endloop
  endfacet
  facet normal 0 0 -1
    outer loop
      vertex 12 -8 0
      vertex 28 8 0
      vertex 28 -8 0
    endloop
  endfacet
  facet normal -0 0 -1
    outer loop
      vertex 28 8 0
      vertex 12 -8 0
      vertex 12 8 0
    endloop
  endfacet
  facet normal -1 0 0
    outer loop
      vertex 12 -8 0
      vertex 12 8 0.499
      vertex 12 8 0
    endloop
  endfacet
  facet normal -1 -0 0
    outer loop
      vertex 12 8 0.499
      vertex 12 -8 0
      vertex 12 -8 0.499
    endloop
  endfacet
  facet normal 0 1 -0
    outer loop
      vertex 28 8 0
      vertex 12 8 0.499
      vertex 28 8 0.499
    endloop
  endfacet
  facet normal 0 1 0
    outer loop
      vertex 12 8 0.499
      vertex 28 8 0
      vertex 12 8 0
    endloop
  endfacet
  facet normal 0 -1 0
    outer loop
      vertex 12 -8 0
      vertex 28 -8 0.499
      vertex 12 -8 0.499
    endloop
  endfacet
  facet normal 0 -1 -0
    outer loop
      vertex 28 -8 0.499
      vertex 12 -8 0
      vertex 28 -8 0
    endloop
  endfacet
  facet normal 0.707466 -0.000381609 -0.706747
    outer loop
      vertex 29.6002 9.53182 2.1
      vertex 28 8 0.499
      vertex 29.5308 9.53077 2.03053
    endloop
  endfacet
  facet normal 0.707283 0 -0.70693
    outer loop
      vertex 29.6002 9.53182 2.1
      vertex 28 -8 0.499
      vertex 28 8 0.499
    endloop
  endfacet
  facet normal 0.707283 0 -0.70693
    outer loop
      vertex 29.6002 -9.53182 2.1
      vertex 28 -8 0.499
      vertex 29.6002 9.53182 2.1
    endloop
  endfacet
  facet normal 0.707466 0.000381609 -0.706747
    outer loop
      vertex 28 -8 0.499
      vertex 29.6002 -9.53182 2.1
      vertex 29.5308 -9.53077 2.03053
    endloop
  endfacet
  facet normal 0 -0.707282 -0.706931
    outer loop
      vertex 12 -8 0.499
      vertex 29.5308 -9.53077 2.03053
      vertex 10.4692 -9.53077 2.03053
    endloop
  endfacet
  facet normal 0 -0.707282 -0.706931
    outer loop
      vertex 29.5308 -9.53077 2.03053
      vertex 12 -8 0.499
      vertex 28 -8 0.499
    endloop
  endfacet
  facet normal -0.707466 -0.000381609 -0.706747
    outer loop
      vertex 12 8 0.499
      vertex 10.3998 9.53182 2.1
      vertex 10.4692 9.53077 2.03053
    endloop
  endfacet
  facet normal -0.707283 0 -0.70693
    outer loop
      vertex 12 -8 0.499
      vertex 10.3998 9.53182 2.1
      vertex 12 8 0.499
    endloop
  endfacet
  facet normal -0.707466 0.000381609 -0.706747
    outer loop
      vertex 10.3998 -9.53182 2.1
      vertex 12 -8 0.499
      vertex 10.4692 -9.53077 2.03053
    endloop
  endfacet
  facet normal -0.707283 0 -0.70693
    outer loop
      vertex 12 -8 0.499
      vertex 10.3998 -9.53182 2.1
      vertex 10.3998 9.53182 2.1
    endloop
  endfacet
  facet normal 0 0.707282 -0.706931
    outer loop
      vertex 28 8 0.499
      vertex 10.4692 9.53077 2.03053
      vertex 29.5308 9.53077 2.03053
    endloop
  endfacet
  facet normal 0 0.707282 -0.706931
    outer loop
      vertex 10.4692 9.53077 2.03053
      vertex 28 8 0.499
      vertex 12 8 0.499
    endloop
  endfacet
  facet normal 1 -0 0
    outer loop
      vertex 48 -8 0.499
      vertex 48 8 0
      vertex 48 8 0.499
    endloop
  endfacet
  facet normal 1 0 0
    outer loop
      vertex 48 8 0
      vertex 48 -8 0.499
      vertex 48 -8 0
    endloop
  endfacet
  facet normal 0 0 -1
    outer loop
      vertex 32 -8 0
      vertex 48 8 0
      vertex 48 -8 0
    endloop
  endfacet
  facet normal -0 0 -1
    outer loop
      vertex 48 8 0
      vertex 32 -8 0
      vertex 32 8 0
    endloop
  endfacet
  facet normal -1 0 0
    outer loop
      vertex 32 -8 0
      vertex 32 8 0.499
      vertex 32 8 0
    endloop
  endfacet
  facet normal -1 -0 0
    outer loop
      vertex 32 8 0.499
      vertex 32 -8 0
      vertex 32 -8 0.499
    endloop
  endfacet
  facet normal 0 1 -0
    outer loop
      vertex 48 8 0
      vertex 32 8 0.499
      vertex 48 8 0.499
    endloop
  endfacet
  facet normal 0 1 0
    outer loop
      vertex 32 8 0.499
      vertex 48 8 0
      vertex 32 8 0
    endloop
  endfacet
  facet normal 0 -1 0
    outer loop
      vertex 32 -8 0
      vertex 48 -8 0.499
      vertex 32 -8 0.499
    endloop
  endfacet
  facet normal 0 -1 -0
    outer loop
      vertex 48 -8 0.499
      vertex 32 -8 0
      vertex 48 -8 0
    endloop
  endfacet
  facet normal 0.707466 -0.000381609 -0.706747
    outer loop
      vertex 49.6002 9.53182 2.1
      vertex 48 8 0.499
      vertex 49.5308 9.53077 2.03053
    endloop
  endfacet
  facet normal 0.707283 0 -0.70693
    outer loop
      vertex 49.6002 9.53182 2.1
      vertex 48 -8 0.499
      vertex 48 8 0.499
    endloop
  endfacet
  facet normal 0.707283 0 -0.70693
    outer loop
      vertex 49.6002 -9.53182 2.1
      vertex 48 -8 0.499
      vertex 49.6002 9.53182 2.1
    endloop
  endfacet
  facet normal 0.707466 0.000381609 -0.706747
    outer loop
      vertex 48 -8 0.499
      vertex 49.6002 -9.53182 2.1
      vertex 49.5308 -9.53077 2.03053
    endloop
  endfacet
  facet normal 0 -0.707282 -0.706931
    outer loop
      vertex 32 -8 0.499
      vertex 49.5308 -9.53077 2.03053
      vertex 30.4692 -9.53077 2.03053
    endloop
  endfacet
  facet normal 0 -0.707282 -0.706931
    outer loop
      vertex 49.5308 -9.53077 2.03053
      vertex 32 -8 0.499
      vertex 48 -8 0.499
    endloop
  endfacet
  facet normal -0.707466 -0.000381609 -0.706747
    outer loop
      vertex 32 8 0.499
      vertex 30.3998 9.53182 2.1
      vertex 30.4692 9.53077 2.03053
    endloop
  endfacet
  facet normal -0.707283 0 -0.70693
    outer loop
      vertex 32 -8 0.499
      vertex 30.3998 9.53182 2.1
      vertex 32 8 0.499
    endloop
  endfacet
  facet normal -0.707466 0.000381609 -0.706747
    outer loop
      vertex 30.3998 -9.53182 2.1
      vertex 32 -8 0.499
      vertex 30.4692 -9.53077 2.03053
    endloop
  endfacet
  facet normal -0.707283 0 -0.70693
    outer loop
      vertex 32 -8 0.499
      vertex 30.3998 -9.53182 2.1
      vertex 30.3998 9.53182 2.1
    endloop
  endfacet
  facet normal 0 0.707282 -0.706931
    outer loop
      vertex 48 8 0.499
      vertex 30.4692 9.53077 2.03053
      vertex 49.5308 9.53077 2.03053
    endloop
  endfacet
  facet normal 0 0.707282 -0.706931
    outer loop
      vertex 30.4692 9.53077 2.03053
      vertex 48 8 0.499
      vertex 32 8 0.499
    endloop
  endfacet
  facet normal 1 -0 0
    outer loop
      vertex 68 -8 0.499
      vertex 68 8 0
      vertex 68 8 0.499
    endloop
  endfacet
  facet normal 1 0 0
    outer loop
      vertex 68 8 0
      vertex 68 -8 0.499
      vertex 68 -8 0
    endloop
  endfacet
  facet normal 0 0 -1
    outer loop
      vertex 52 -8 0
      vertex 68 8 0
      vertex 68 -8 0
    endloop
  endfacet
  facet normal -0 0 -1
    outer loop
      vertex 68 8 0
      vertex 52 -8 0
      vertex 52 8 0
    endloop
  endfacet
  facet normal -1 0 0
    outer loop
      vertex 52 -8 0
      vertex 52 8 0.499
      vertex 52 8 0
    endloop
  endfacet
  facet normal -1 -0 0
    outer loop
      vertex 52 8 0.499
      vertex 52 -8 0
      vertex 52 -8 0.499
    endloop
  endfacet
  facet normal 0 1 -0
    outer loop
      vertex 68 8 0
      vertex 52 8 0.499
      vertex 68 8 0.499
    endloop
  endfacet
  facet normal 0 1 0
    outer loop
      vertex 52 8 0.499
      vertex 68 8 0
      vertex 52 8 0
    endloop
  endfacet
  facet normal 0 -1 0
    outer loop
      vertex 52 -8 0
      vertex 68 -8 0.499
      vertex 52 -8 0.499
    endloop
  endfacet
  facet normal 0 -1 -0
    outer loop
      vertex 68 -8 0.499
      vertex 52 -8 0
      vertex 68 -8 0
    endloop
  endfacet
  facet normal 0.707275 0 -0.706938
    outer loop
      vertex 69.5308 9.53077 2.03053
      vertex 68 -8 0.499
      vertex 68 8 0.499
    endloop
  endfacet
  facet normal 0.707275 0 -0.706938
    outer loop
      vertex 68 -8 0.499
      vertex 69.5308 9.53077 2.03053
      vertex 69.5308 -9.53077 2.03053
    endloop
  endfacet
  facet normal 0 -0.707282 -0.706931
    outer loop
      vertex 52 -8 0.499
      vertex 69.5308 -9.53077 2.03053
      vertex 50.4692 -9.53077 2.03053
    endloop
  endfacet
  facet normal 0 -0.707282 -0.706931
    outer loop
      vertex 69.5308 -9.53077 2.03053
      vertex 52 -8 0.499
      vertex 68 -8 0.499
    endloop
  endfacet
  facet normal -0.707466 -0.000381609 -0.706747
    outer loop
      vertex 52 8 0.499
      vertex 50.3998 9.53182 2.1
      vertex 50.4692 9.53077 2.03053
    endloop
  endfacet
  facet normal -0.707283 0 -0.70693
    outer loop
      vertex 52 -8 0.499
      vertex 50.3998 9.53182 2.1
      vertex 52 8 0.499
    endloop
  endfacet
  facet normal -0.707466 0.000381609 -0.706747
    outer loop
      vertex 50.3998 -9.53182 2.1
      vertex 52 -8 0.499
      vertex 50.4692 -9.53077 2.03053
    endloop
  endfacet
  facet normal -0.707283 0 -0.70693
    outer loop
      vertex 52 -8 0.499
      vertex 50.3998 -9.53182 2.1
      vertex 50.3998 9.53182 2.1
    endloop
  endfacet
  facet normal 0 0.707282 -0.706931
    outer loop
      vertex 68 8 0.499
      vertex 50.4692 9.53077 2.03053
      vertex 69.5308 9.53077 2.03053
    endloop
  endfacet
  facet normal 0 0.707282 -0.706931
    outer loop
      vertex 50.4692 9.53077 2.03053
      vertex 68 8 0.499
      vertex 52 8 0.499
    endloop
  endfacet
  facet normal 0 0 1
    outer loop
      vertex 70 9.99998 32.999
      vertex 69.1954 9.19544 32.999
      vertex 70 -9.99998 32.999
    endloop
  endfacet
  facet normal 0 0 1
    outer loop
      vertex 70 9.99998 32.999
      vertex -9.19544 9.19544 32.999
      vertex 69.1954 9.19544 32.999
    endloop
  endfacet
  facet normal 0 0 1
    outer loop
      vertex -9.19544 9.19544 32.999
      vertex -9.99998 9.99998 32.999
      vertex -9.19544 -9.19544 32.999
    endloop
  endfacet
  facet normal -0 0 1
    outer loop
      vertex -9.99998 9.99998 32.999
      vertex -9.19544 9.19544 32.999
      vertex 70 9.99998 32.999
    endloop
  endfacet
  facet normal -0 0 1
    outer loop
      vertex 69.1954 -9.19544 32.999
      vertex 70 -9.99998 32.999
      vertex 69.1954 9.19544 32.999
    endloop
  endfacet
  facet normal -0 0 1
    outer loop
      vertex -9.19544 -9.19544 32.999
      vertex 70 -9.99998 32.999
      vertex 69.1954 -9.19544 32.999
    endloop
  endfacet
  facet normal 0 0 1
    outer loop
      vertex -9.19544 -9.19544 32.999
      vertex -9.99998 -9.99998 32.999
      vertex 70 -9.99998 32.999
    endloop
  endfacet
  facet normal 0 0 1
    outer loop
      vertex -9.99998 -9.99998 32.999
      vertex -9.19544 -9.19544 32.999
      vertex -9.99998 9.99998 32.999
    endloop
  endfacet
  facet normal 0 0 -1
    outer loop
      vertex 9.6002 -9.53182 2.1
      vertex 10.3998 9.53182 2.1
      vertex 10.3998 -9.53182 2.1
    endloop
  endfacet
  facet normal -0 0 -1
    outer loop
      vertex 10.3998 9.53182 2.1
      vertex 9.6002 -9.53182 2.1
      vertex 9.6002 9.53182 2.1
    endloop
  endfacet
  facet normal 0 0 -1
    outer loop
      vertex 29.6002 -9.53182 2.1
      vertex 30.3998 9.53182 2.1
      vertex 30.3998 -9.53182 2.1
    endloop
  endfacet
  facet normal -0 0 -1
    outer loop
      vertex 30.3998 9.53182 2.1
      vertex 29.6002 -9.53182 2.1
      vertex 29.6002 9.53182 2.1
    endloop
  endfacet
  facet normal 0 0 -1
    outer loop
      vertex 49.6002 -9.53182 2.1
      vertex 50.3998 9.53182 2.1
      vertex 50.3998 -9.53182 2.1
    endloop
  endfacet
  facet normal -0 0 -1
    outer loop
      vertex 50.3998 9.53182 2.1
      vertex 49.6002 -9.53182 2.1
      vertex 49.6002 9.53182 2.1
    endloop
  endfacet
  facet normal -0.999885 0 -0.0151495
    outer loop
      vertex -9.53077 -9.53077 2.03053
      vertex -9.99998 9.99998 32.999
      vertex -9.53077 9.53077 2.03053
    endloop
  endfacet
  facet normal -0.999885 -0 -0.0151495
    outer loop
      vertex -9.99998 9.99998 32.999
      vertex -9.53077 -9.53077 2.03053
      vertex -9.99998 -9.99998 32.999
    endloop
  endfacet
  facet normal 0.999885 0 -0.0151492
    outer loop
      vertex 70 9.99998 32.999
      vertex 69.5308 -9.53077 2.03053
      vertex 69.5308 9.53077 2.03053
    endloop
  endfacet
  facet normal 0.999885 0 -0.0151492
    outer loop
      vertex 69.5308 -9.53077 2.03053
      vertex 70 9.99998 32.999
      vertex 70 -9.99998 32.999
    endloop
  endfacet
  facet normal 0 -0.999886 -0.0151127
    outer loop
      vertex 30.4692 -9.53077 2.03053
      vertex 49.6002 -9.53182 2.1
      vertex 30.3998 -9.53182 2.1
    endloop
  endfacet
  facet normal 0 -0.999886 -0.0151127
    outer loop
      vertex 49.6002 -9.53182 2.1
      vertex 30.4692 -9.53077 2.03053
      vertex 49.5308 -9.53077 2.03053
    endloop
  endfacet
  facet normal 0 -0.999886 -0.0151127
    outer loop
      vertex 10.4692 -9.53077 2.03053
      vertex 29.6002 -9.53182 2.1
      vertex 10.3998 -9.53182 2.1
    endloop
  endfacet
  facet normal 0 -0.999886 -0.0151127
    outer loop
      vertex 29.6002 -9.53182 2.1
      vertex 10.4692 -9.53077 2.03053
      vertex 29.5308 -9.53077 2.03053
    endloop
  endfacet
  facet normal -0 -0.999885 -0.0151496
    outer loop
      vertex 10.3998 -9.53182 2.1
      vertex -9.99998 -9.99998 32.999
      vertex 9.6002 -9.53182 2.1
    endloop
  endfacet
  facet normal 1.33532e-07 -0.999885 -0.0151495
    outer loop
      vertex -9.53077 -9.53077 2.03053
      vertex 9.6002 -9.53182 2.1
      vertex -9.99998 -9.99998 32.999
    endloop
  endfacet
  facet normal 0 -0.999886 -0.0151127
    outer loop
      vertex 9.6002 -9.53182 2.1
      vertex -9.53077 -9.53077 2.03053
      vertex 9.53077 -9.53077 2.03053
    endloop
  endfacet
  facet normal -0 -0.999885 -0.0151496
    outer loop
      vertex 29.6002 -9.53182 2.1
      vertex -9.99998 -9.99998 32.999
      vertex 10.3998 -9.53182 2.1
    endloop
  endfacet
  facet normal 0 -0.999885 -0.0151496
    outer loop
      vertex -9.99998 -9.99998 32.999
      vertex 29.6002 -9.53182 2.1
      vertex 70 -9.99998 32.999
    endloop
  endfacet
  facet normal -0 -0.999885 -0.0151496
    outer loop
      vertex 30.3998 -9.53182 2.1
      vertex 70 -9.99998 32.999
      vertex 29.6002 -9.53182 2.1
    endloop
  endfacet
  facet normal -0 -0.999885 -0.0151496
    outer loop
      vertex 49.6002 -9.53182 2.1
      vertex 70 -9.99998 32.999
      vertex 30.3998 -9.53182 2.1
    endloop
  endfacet
  facet normal -0 -0.999885 -0.0151496
    outer loop
      vertex 50.3998 -9.53182 2.1
      vertex 70 -9.99998 32.999
      vertex 49.6002 -9.53182 2.1
    endloop
  endfacet
  facet normal -0 -0.999886 -0.0151127
    outer loop
      vertex 69.5308 -9.53077 2.03053
      vertex 50.3998 -9.53182 2.1
      vertex 50.4692 -9.53077 2.03053
    endloop
  endfacet
  facet normal -1.33531e-07 -0.999885 -0.0151495
    outer loop
      vertex 50.3998 -9.53182 2.1
      vertex 69.5308 -9.53077 2.03053
      vertex 70 -9.99998 32.999
    endloop
  endfacet
  facet normal 0 0.999886 -0.0151127
    outer loop
      vertex 29.5308 9.53077 2.03053
      vertex 10.3998 9.53182 2.1
      vertex 29.6002 9.53182 2.1
    endloop
  endfacet
  facet normal 0 0.999886 -0.0151127
    outer loop
      vertex 10.3998 9.53182 2.1
      vertex 29.5308 9.53077 2.03053
      vertex 10.4692 9.53077 2.03053
    endloop
  endfacet
  facet normal 0 0.999886 -0.0151127
    outer loop
      vertex 49.5308 9.53077 2.03053
      vertex 30.3998 9.53182 2.1
      vertex 49.6002 9.53182 2.1
    endloop
  endfacet
  facet normal 0 0.999886 -0.0151127
    outer loop
      vertex 30.3998 9.53182 2.1
      vertex 49.5308 9.53077 2.03053
      vertex 30.4692 9.53077 2.03053
    endloop
  endfacet
  facet normal 0 0.999885 -0.0151496
    outer loop
      vertex 49.6002 9.53182 2.1
      vertex 70 9.99998 32.999
      vertex 50.3998 9.53182 2.1
    endloop
  endfacet
  facet normal -1.33531e-07 0.999885 -0.0151495
    outer loop
      vertex 69.5308 9.53077 2.03053
      vertex 50.3998 9.53182 2.1
      vertex 70 9.99998 32.999
    endloop
  endfacet
  facet normal 0 0.999886 -0.0151127
    outer loop
      vertex 50.3998 9.53182 2.1
      vertex 69.5308 9.53077 2.03053
      vertex 50.4692 9.53077 2.03053
    endloop
  endfacet
  facet normal 0 0.999885 -0.0151496
    outer loop
      vertex 30.3998 9.53182 2.1
      vertex 70 9.99998 32.999
      vertex 49.6002 9.53182 2.1
    endloop
  endfacet
  facet normal 0 0.999885 -0.0151496
    outer loop
      vertex 70 9.99998 32.999
      vertex 30.3998 9.53182 2.1
      vertex -9.99998 9.99998 32.999
    endloop
  endfacet
  facet normal 0 0.999885 -0.0151496
    outer loop
      vertex 29.6002 9.53182 2.1
      vertex -9.99998 9.99998 32.999
      vertex 30.3998 9.53182 2.1
    endloop
  endfacet
  facet normal 0 0.999885 -0.0151496
    outer loop
      vertex 10.3998 9.53182 2.1
      vertex -9.99998 9.99998 32.999
      vertex 29.6002 9.53182 2.1
    endloop
  endfacet
  facet normal 0 0.999885 -0.0151496
    outer loop
      vertex 9.6002 9.53182 2.1
      vertex -9.99998 9.99998 32.999
      vertex 10.3998 9.53182 2.1
    endloop
  endfacet
  facet normal 0 0.999886 -0.0151127
    outer loop
      vertex -9.53077 9.53077 2.03053
      vertex 9.6002 9.53182 2.1
      vertex 9.53077 9.53077 2.03053
    endloop
  endfacet
  facet normal 1.33532e-07 0.999885 -0.0151495
    outer loop
      vertex 9.6002 9.53182 2.1
      vertex -9.53077 9.53077 2.03053
      vertex -9.99998 9.99998 32.999
    endloop
  endfacet
  facet normal -0 0 1
    outer loop
      vertex -7.2 7.2 0.799
      vertex 7.2 -7.2 0.799
      vertex 7.2 7.2 0.799
    endloop
  endfacet
  facet normal 0 0 1
    outer loop
      vertex 7.2 -7.2 0.799
      vertex -7.2 7.2 0.799
      vertex -7.2 -7.2 0.799
    endloop
  endfacet
  facet normal -0.707288 1.15468e-05 0.706925
    outer loop
      vertex 7.2 7.2 0.799
      vertex 9.199 8.73786 2.799
      vertex 8.73077 8.73077 2.33053
    endloop
  endfacet
  facet normal -0.707284 0 0.70693
    outer loop
      vertex 7.2 -7.2 0.799
      vertex 9.199 8.73786 2.799
      vertex 7.2 7.2 0.799
    endloop
  endfacet
  facet normal -0.707288 -1.15468e-05 0.706925
    outer loop
      vertex 9.199 -8.73786 2.799
      vertex 7.2 -7.2 0.799
      vertex 8.73077 -8.73077 2.33053
    endloop
  endfacet
  facet normal -0.707284 0 0.70693
    outer loop
      vertex 7.2 -7.2 0.799
      vertex 9.199 -8.73786 2.799
      vertex 9.199 8.73786 2.799
    endloop
  endfacet
  facet normal 0 0.707282 0.706931
    outer loop
      vertex 7.2 -7.2 0.799
      vertex -8.73077 -8.73077 2.33053
      vertex 8.73077 -8.73077 2.33053
    endloop
  endfacet
  facet normal 0 0.707282 0.706931
    outer loop
      vertex -8.73077 -8.73077 2.33053
      vertex 7.2 -7.2 0.799
      vertex -7.2 -7.2 0.799
    endloop
  endfacet
  facet normal 0.707282 0 0.706931
    outer loop
      vertex -8.73077 8.73077 2.33053
      vertex -7.2 -7.2 0.799
      vertex -7.2 7.2 0.799
    endloop
  endfacet
  facet normal 0.707282 0 0.706931
    outer loop
      vertex -7.2 -7.2 0.799
      vertex -8.73077 8.73077 2.33053
      vertex -8.73077 -8.73077 2.33053
    endloop
  endfacet
  facet normal 0 -0.707282 0.706931
    outer loop
      vertex -7.2 7.2 0.799
      vertex 8.73077 8.73077 2.33053
      vertex -8.73077 8.73077 2.33053
    endloop
  endfacet
  facet normal 0 -0.707282 0.706931
    outer loop
      vertex 8.73077 8.73077 2.33053
      vertex -7.2 7.2 0.799
      vertex 7.2 7.2 0.799
    endloop
  endfacet
  facet normal -0 0 1
    outer loop
      vertex 12.8 7.2 0.799
      vertex 27.2 -7.2 0.799
      vertex 27.2 7.2 0.799
    endloop
  endfacet
  facet normal 0 0 1
    outer loop
      vertex 27.2 -7.2 0.799
      vertex 12.8 7.2 0.799
      vertex 12.8 -7.2 0.799
    endloop
  endfacet
  facet normal -0.707311 7.16363e-05 0.706902
    outer loop
      vertex 27.2 7.2 0.799
      vertex 29.199 8.73786 2.799
      vertex 28.7308 8.73077 2.33053
    endloop
  endfacet
  facet normal -0.707284 0 0.70693
    outer loop
      vertex 27.2 -7.2 0.799
      vertex 29.199 8.73786 2.799
      vertex 27.2 7.2 0.799
    endloop
  endfacet
  facet normal -0.707311 -7.16363e-05 0.706902
    outer loop
      vertex 29.199 -8.73786 2.799
      vertex 27.2 -7.2 0.799
      vertex 28.7308 -8.73077 2.33053
    endloop
  endfacet
  facet normal -0.707284 0 0.70693
    outer loop
      vertex 27.2 -7.2 0.799
      vertex 29.199 -8.73786 2.799
      vertex 29.199 8.73786 2.799
    endloop
  endfacet
  facet normal 0 0.707282 0.706931
    outer loop
      vertex 27.2 -7.2 0.799
      vertex 11.2692 -8.73077 2.33053
      vertex 28.7308 -8.73077 2.33053
    endloop
  endfacet
  facet normal 0 0.707282 0.706931
    outer loop
      vertex 11.2692 -8.73077 2.33053
      vertex 27.2 -7.2 0.799
      vertex 12.8 -7.2 0.799
    endloop
  endfacet
  facet normal 0.707311 7.16363e-05 0.706902
    outer loop
      vertex 10.801 8.73786 2.799
      vertex 12.8 7.2 0.799
      vertex 11.2692 8.73077 2.33053
    endloop
  endfacet
  facet normal 0.707284 0 0.70693
    outer loop
      vertex 10.801 8.73786 2.799
      vertex 12.8 -7.2 0.799
      vertex 12.8 7.2 0.799
    endloop
  endfacet
  facet normal 0.707284 -0 0.70693
    outer loop
      vertex 10.801 -8.73786 2.799
      vertex 12.8 -7.2 0.799
      vertex 10.801 8.73786 2.799
    endloop
  endfacet
  facet normal 0.707311 -7.16363e-05 0.706902
    outer loop
      vertex 12.8 -7.2 0.799
      vertex 10.801 -8.73786 2.799
      vertex 11.2692 -8.73077 2.33053
    endloop
  endfacet
  facet normal 0 -0.707282 0.706931
    outer loop
      vertex 12.8 7.2 0.799
      vertex 28.7308 8.73077 2.33053
      vertex 11.2692 8.73077 2.33053
    endloop
  endfacet
  facet normal 0 -0.707282 0.706931
    outer loop
      vertex 28.7308 8.73077 2.33053
      vertex 12.8 7.2 0.799
      vertex 27.2 7.2 0.799
    endloop
  endfacet
  facet normal -0 0 1
    outer loop
      vertex 32.8 7.2 0.799
      vertex 47.2 -7.2 0.799
      vertex 47.2 7.2 0.799
    endloop
  endfacet
  facet normal 0 0 1
    outer loop
      vertex 47.2 -7.2 0.799
      vertex 32.8 7.2 0.799
      vertex 32.8 -7.2 0.799
    endloop
  endfacet
  facet normal -0.707311 7.16363e-05 0.706902
    outer loop
      vertex 47.2 7.2 0.799
      vertex 49.199 8.73786 2.799
      vertex 48.7308 8.73077 2.33053
    endloop
  endfacet
  facet normal -0.707284 0 0.70693
    outer loop
      vertex 47.2 -7.2 0.799
      vertex 49.199 8.73786 2.799
      vertex 47.2 7.2 0.799
    endloop
  endfacet
  facet normal -0.707311 -7.16363e-05 0.706902
    outer loop
      vertex 49.199 -8.73786 2.799
      vertex 47.2 -7.2 0.799
      vertex 48.7308 -8.73077 2.33053
    endloop
  endfacet
  facet normal -0.707284 0 0.70693
    outer loop
      vertex 47.2 -7.2 0.799
      vertex 49.199 -8.73786 2.799
      vertex 49.199 8.73786 2.799
    endloop
  endfacet
  facet normal 0 0.707282 0.706931
    outer loop
      vertex 47.2 -7.2 0.799
      vertex 31.2692 -8.73077 2.33053
      vertex 48.7308 -8.73077 2.33053
    endloop
  endfacet
  facet normal 0 0.707282 0.706931
    outer loop
      vertex 31.2692 -8.73077 2.33053
      vertex 47.2 -7.2 0.799
      vertex 32.8 -7.2 0.799
    endloop
  endfacet
  facet normal 0.707311 7.16363e-05 0.706902
    outer loop
      vertex 30.801 8.73786 2.799
      vertex 32.8 7.2 0.799
      vertex 31.2692 8.73077 2.33053
    endloop
  endfacet
  facet normal 0.707284 0 0.70693
    outer loop
      vertex 30.801 8.73786 2.799
      vertex 32.8 -7.2 0.799
      vertex 32.8 7.2 0.799
    endloop
  endfacet
  facet normal 0.707284 -0 0.70693
    outer loop
      vertex 30.801 -8.73786 2.799
      vertex 32.8 -7.2 0.799
      vertex 30.801 8.73786 2.799
    endloop
  endfacet
  facet normal 0.707311 -7.16363e-05 0.706902
    outer loop
      vertex 32.8 -7.2 0.799
      vertex 30.801 -8.73786 2.799
      vertex 31.2692 -8.73077 2.33053
    endloop
  endfacet
  facet normal 0 -0.707282 0.706931
    outer loop
      vertex 32.8 7.2 0.799
      vertex 48.7308 8.73077 2.33053
      vertex 31.2692 8.73077 2.33053
    endloop
  endfacet
  facet normal 0 -0.707282 0.706931
    outer loop
      vertex 48.7308 8.73077 2.33053
      vertex 32.8 7.2 0.799
      vertex 47.2 7.2 0.799
    endloop
  endfacet
  facet normal -0 0 1
    outer loop
      vertex 52.8 7.2 0.799
      vertex 67.2 -7.2 0.799
      vertex 67.2 7.2 0.799
    endloop
  endfacet
  facet normal 0 0 1
    outer loop
      vertex 67.2 -7.2 0.799
      vertex 52.8 7.2 0.799
      vertex 52.8 -7.2 0.799
    endloop
  endfacet
  facet normal -0.707275 0 0.706938
    outer loop
      vertex 67.2 -7.2 0.799
      vertex 68.7308 8.73077 2.33053
      vertex 67.2 7.2 0.799
    endloop
  endfacet
  facet normal -0.707275 0 0.706938
    outer loop
      vertex 68.7308 8.73077 2.33053
      vertex 67.2 -7.2 0.799
      vertex 68.7308 -8.73077 2.33053
    endloop
  endfacet
  facet normal 0 0.707282 0.706931
    outer loop
      vertex 67.2 -7.2 0.799
      vertex 51.2692 -8.73077 2.33053
      vertex 68.7308 -8.73077 2.33053
    endloop
  endfacet
  facet normal 0 0.707282 0.706931
    outer loop
      vertex 51.2692 -8.73077 2.33053
      vertex 67.2 -7.2 0.799
      vertex 52.8 -7.2 0.799
    endloop
  endfacet
  facet normal 0.707311 7.16363e-05 0.706902
    outer loop
      vertex 50.801 8.73786 2.799
      vertex 52.8 7.2 0.799
      vertex 51.2692 8.73077 2.33053
    endloop
  endfacet
  facet normal 0.707284 0 0.70693
    outer loop
      vertex 50.801 8.73786 2.799
      vertex 52.8 -7.2 0.799
      vertex 52.8 7.2 0.799
    endloop
  endfacet
  facet normal 0.707284 -0 0.70693
    outer loop
      vertex 50.801 -8.73786 2.799
      vertex 52.8 -7.2 0.799
      vertex 50.801 8.73786 2.799
    endloop
  endfacet
  facet normal 0.707311 -7.16363e-05 0.706902
    outer loop
      vertex 52.8 -7.2 0.799
      vertex 50.801 -8.73786 2.799
      vertex 51.2692 -8.73077 2.33053
    endloop
  endfacet
  facet normal 0 -0.707282 0.706931
    outer loop
      vertex 52.8 7.2 0.799
      vertex 68.7308 8.73077 2.33053
      vertex 51.2692 8.73077 2.33053
    endloop
  endfacet
  facet normal 0 -0.707282 0.706931
    outer loop
      vertex 68.7308 8.73077 2.33053
      vertex 52.8 7.2 0.799
      vertex 67.2 7.2 0.799
    endloop
  endfacet
  facet normal -0 0 1
    outer loop
      vertex 9.199 8.73786 2.799
      vertex 10.801 -8.73786 2.799
      vertex 10.801 8.73786 2.799
    endloop
  endfacet
  facet normal 0 0 1
    outer loop
      vertex 10.801 -8.73786 2.799
      vertex 9.199 8.73786 2.799
      vertex 9.199 -8.73786 2.799
    endloop
  endfacet
  facet normal -0 0 1
    outer loop
      vertex 29.199 8.73786 2.799
      vertex 30.801 -8.73786 2.799
      vertex 30.801 8.73786 2.799
    endloop
  endfacet
  facet normal 0 0 1
    outer loop
      vertex 30.801 -8.73786 2.799
      vertex 29.199 8.73786 2.799
      vertex 29.199 -8.73786 2.799
    endloop
  endfacet
  facet normal -0 0 1
    outer loop
      vertex 49.199 8.73786 2.799
      vertex 50.801 -8.73786 2.799
      vertex 50.801 8.73786 2.799
    endloop
  endfacet
  facet normal 0 0 1
    outer loop
      vertex 50.801 -8.73786 2.799
      vertex 49.199 8.73786 2.799
      vertex 49.199 -8.73786 2.799
    endloop
  endfacet
  facet normal 0.999885 0 0.0151497
    outer loop
      vertex -9.19544 9.19544 32.999
      vertex -8.73077 -8.73077 2.33053
      vertex -8.73077 8.73077 2.33053
    endloop
  endfacet
  facet normal 0.999885 0 0.0151497
    outer loop
      vertex -8.73077 -8.73077 2.33053
      vertex -9.19544 9.19544 32.999
      vertex -9.19544 -9.19544 32.999
    endloop
  endfacet
  facet normal -0.999885 0 0.0151474
    outer loop
      vertex 68.7308 -8.73077 2.33053
      vertex 69.1954 9.19544 32.999
      vertex 68.7308 8.73077 2.33053
    endloop
  endfacet
  facet normal -0.999885 0 0.0151474
    outer loop
      vertex 69.1954 9.19544 32.999
      vertex 68.7308 -8.73077 2.33053
      vertex 69.1954 -9.19544 32.999
    endloop
  endfacet
  facet normal 0 0.999885 0.0151326
    outer loop
      vertex 28.7308 -8.73077 2.33053
      vertex 10.801 -8.73786 2.799
      vertex 29.199 -8.73786 2.799
    endloop
  endfacet
  facet normal 0 0.999885 0.0151326
    outer loop
      vertex 10.801 -8.73786 2.799
      vertex 28.7308 -8.73077 2.33053
      vertex 11.2692 -8.73077 2.33053
    endloop
  endfacet
  facet normal 0 0.999885 0.0151326
    outer loop
      vertex 48.7308 -8.73077 2.33053
      vertex 30.801 -8.73786 2.799
      vertex 49.199 -8.73786 2.799
    endloop
  endfacet
  facet normal 0 0.999885 0.0151326
    outer loop
      vertex 30.801 -8.73786 2.799
      vertex 48.7308 -8.73077 2.33053
      vertex 31.2692 -8.73077 2.33053
    endloop
  endfacet
  facet normal 0 0.999885 0.0151498
    outer loop
      vertex 69.1954 -9.19544 32.999
      vertex 37.5 -9.16894 31.25
      vertex -9.19544 -9.19544 32.999
    endloop
  endfacet
  facet normal -4.08655e-08 0.999885 0.0151505
    outer loop
      vertex 69.1954 -9.19544 32.999
      vertex 37.5 -9.06355 24.2946
      vertex 37.5 -9.16894 31.25
    endloop
  endfacet
  facet normal 0.000747529 0.999922 0.012429
    outer loop
      vertex 69.1954 -9.19544 32.999
      vertex 37.4997 -9.06351 24.2914
      vertex 37.5 -9.06355 24.2946
    endloop
  endfacet
  facet normal -1.72629e-07 0.999885 0.01515
    outer loop
      vertex 50.801 -8.73786 2.799
      vertex 37.4997 -9.06351 24.2914
      vertex 69.1954 -9.19544 32.999
    endloop
  endfacet
  facet normal -0.000383782 0.999889 0.0149127
    outer loop
      vertex 37.4997 -9.06351 24.2914
      vertex 50.801 -8.73786 2.799
      vertex 37.499 -9.06347 24.2887
    endloop
  endfacet
  facet normal 0.00270731 0.999855 0.0168255
    outer loop
      vertex 37.499 -9.06347 24.2887
      vertex 50.801 -8.73786 2.799
      vertex 37.4979 -9.06343 24.2865
    endloop
  endfacet
  facet normal -0 0.999885 0.0151499
    outer loop
      vertex 49.199 -8.73786 2.799
      vertex 37.4979 -9.06343 24.2865
      vertex 50.801 -8.73786 2.799
    endloop
  endfacet
  facet normal -0.00258662 0.999902 0.0137416
    outer loop
      vertex 37.4979 -9.06343 24.2865
      vertex 49.199 -8.73786 2.799
      vertex 37.4966 -9.06341 24.2848
    endloop
  endfacet
  facet normal 0.000131079 0.999884 0.0152215
    outer loop
      vertex 37.4966 -9.06341 24.2848
      vertex 49.199 -8.73786 2.799
      vertex 37.495 -9.06339 24.2835
    endloop
  endfacet
  facet normal -0 0.999885 0.0151498
    outer loop
      vertex 30.801 -8.73786 2.799
      vertex 37.4914 -9.06336 24.282
      vertex 49.199 -8.73786 2.799
    endloop
  endfacet
  facet normal 0.000408168 0.999882 0.0153722
    outer loop
      vertex 37.4933 -9.06337 24.2826
      vertex 49.199 -8.73786 2.799
      vertex 37.4914 -9.06336 24.282
    endloop
  endfacet
  facet normal 0.00290483 0.999856 0.0167321
    outer loop
      vertex 37.495 -9.06339 24.2835
      vertex 49.199 -8.73786 2.799
      vertex 37.4933 -9.06337 24.2826
    endloop
  endfacet
  facet normal 4.44421e-07 0.999885 0.0151496
    outer loop
      vertex 68.7308 -8.73077 2.33053
      vertex 50.801 -8.73786 2.799
      vertex 69.1954 -9.19544 32.999
    endloop
  endfacet
  facet normal 0 0.999885 0.0151326
    outer loop
      vertex 50.801 -8.73786 2.799
      vertex 68.7308 -8.73077 2.33053
      vertex 51.2692 -8.73077 2.33053
    endloop
  endfacet
  facet normal -0 0.999885 0.0151498
    outer loop
      vertex 22.5 -9.16894 31.25
      vertex -9.19544 -9.19544 32.999
      vertex 37.5 -9.16894 31.25
    endloop
  endfacet
  facet normal 4.08654e-08 0.999885 0.0151505
    outer loop
      vertex 22.5 -9.06355 24.2946
      vertex -9.19544 -9.19544 32.999
      vertex 22.5 -9.16894 31.25
    endloop
  endfacet
  facet normal -0.000747528 0.999922 0.012429
    outer loop
      vertex 22.5003 -9.06351 24.2914
      vertex -9.19544 -9.19544 32.999
      vertex 22.5 -9.06355 24.2946
    endloop
  endfacet
  facet normal 0.000383782 0.999889 0.0149127
    outer loop
      vertex 9.199 -8.73786 2.799
      vertex 22.5003 -9.06351 24.2914
      vertex 22.501 -9.06347 24.2887
    endloop
  endfacet
  facet normal -0.00270731 0.999855 0.0168255
    outer loop
      vertex 9.199 -8.73786 2.799
      vertex 22.501 -9.06347 24.2887
      vertex 22.5021 -9.06343 24.2865
    endloop
  endfacet
  facet normal 0.00258662 0.999902 0.0137416
    outer loop
      vertex 10.801 -8.73786 2.799
      vertex 22.5021 -9.06343 24.2865
      vertex 22.5034 -9.06341 24.2848
    endloop
  endfacet
  facet normal -0.000131079 0.999884 0.0152215
    outer loop
      vertex 10.801 -8.73786 2.799
      vertex 22.5034 -9.06341 24.2848
      vertex 22.505 -9.06339 24.2835
    endloop
  endfacet
  facet normal -0.00290483 0.999856 0.0167321
    outer loop
      vertex 10.801 -8.73786 2.799
      vertex 22.505 -9.06339 24.2835
      vertex 22.5067 -9.06337 24.2826
    endloop
  endfacet
  facet normal -0.000408168 0.999882 0.0153722
    outer loop
      vertex 10.801 -8.73786 2.799
      vertex 22.5067 -9.06337 24.2826
      vertex 22.5086 -9.06336 24.282
    endloop
  endfacet
  facet normal -0.000769467 0.999881 0.0153893
    outer loop
      vertex 37.4914 -9.06336 24.282
      vertex 30.801 -8.73786 2.799
      vertex 37.4894 -9.06336 24.2819
    endloop
  endfacet
  facet normal 0 0.999885 0.0151498
    outer loop
      vertex 37.4894 -9.06336 24.2819
      vertex 30.801 -8.73786 2.799
      vertex 22.5106 -9.06336 24.2819
    endloop
  endfacet
  facet normal -0 0.999885 0.0151498
    outer loop
      vertex 29.199 -8.73786 2.799
      vertex 22.5106 -9.06336 24.2819
      vertex 30.801 -8.73786 2.799
    endloop
  endfacet
  facet normal 0.000769467 0.999881 0.0153893
    outer loop
      vertex 22.5106 -9.06336 24.2819
      vertex 29.199 -8.73786 2.799
      vertex 22.5086 -9.06336 24.282
    endloop
  endfacet
  facet normal -0 0.999885 0.0151498
    outer loop
      vertex 10.801 -8.73786 2.799
      vertex 22.5086 -9.06336 24.282
      vertex 29.199 -8.73786 2.799
    endloop
  endfacet
  facet normal 0 0.999885 0.0151499
    outer loop
      vertex 22.5021 -9.06343 24.2865
      vertex 10.801 -8.73786 2.799
      vertex 9.199 -8.73786 2.799
    endloop
  endfacet
  facet normal 1.72629e-07 0.999885 0.01515
    outer loop
      vertex 22.5003 -9.06351 24.2914
      vertex 9.199 -8.73786 2.799
      vertex -9.19544 -9.19544 32.999
    endloop
  endfacet
  facet normal -0 0.999885 0.0151326
    outer loop
      vertex -8.73077 -8.73077 2.33053
      vertex 9.199 -8.73786 2.799
      vertex 8.73077 -8.73077 2.33053
    endloop
  endfacet
  facet normal -4.44421e-07 0.999885 0.0151496
    outer loop
      vertex 9.199 -8.73786 2.799
      vertex -8.73077 -8.73077 2.33053
      vertex -9.19544 -9.19544 32.999
    endloop
  endfacet
  facet normal 0 -0.999885 0.0151326
    outer loop
      vertex 31.2692 8.73077 2.33053
      vertex 49.199 8.73786 2.799
      vertex 30.801 8.73786 2.799
    endloop
  endfacet
  facet normal 0 -0.999885 0.0151326
    outer loop
      vertex 49.199 8.73786 2.799
      vertex 31.2692 8.73077 2.33053
      vertex 48.7308 8.73077 2.33053
    endloop
  endfacet
  facet normal 0 -0.999885 0.0151326
    outer loop
      vertex 11.2692 8.73077 2.33053
      vertex 29.199 8.73786 2.799
      vertex 10.801 8.73786 2.799
    endloop
  endfacet
  facet normal 0 -0.999885 0.0151326
    outer loop
      vertex 29.199 8.73786 2.799
      vertex 11.2692 8.73077 2.33053
      vertex 28.7308 8.73077 2.33053
    endloop
  endfacet
  facet normal 0 -0.999885 0.0151499
    outer loop
      vertex 10.801 8.73786 2.799
      vertex -9.19544 9.19544 32.999
      vertex 9.199 8.73786 2.799
    endloop
  endfacet
  facet normal -4.44421e-07 -0.999885 0.0151496
    outer loop
      vertex -8.73077 8.73077 2.33053
      vertex 9.199 8.73786 2.799
      vertex -9.19544 9.19544 32.999
    endloop
  endfacet
  facet normal 0 -0.999885 0.0151326
    outer loop
      vertex 9.199 8.73786 2.799
      vertex -8.73077 8.73077 2.33053
      vertex 8.73077 8.73077 2.33053
    endloop
  endfacet
  facet normal 0 -0.999885 0.0151499
    outer loop
      vertex 29.199 8.73786 2.799
      vertex -9.19544 9.19544 32.999
      vertex 10.801 8.73786 2.799
    endloop
  endfacet
  facet normal 0 -0.999885 0.0151499
    outer loop
      vertex -9.19544 9.19544 32.999
      vertex 29.199 8.73786 2.799
      vertex 69.1954 9.19544 32.999
    endloop
  endfacet
  facet normal 0 -0.999885 0.0151499
    outer loop
      vertex 30.801 8.73786 2.799
      vertex 69.1954 9.19544 32.999
      vertex 29.199 8.73786 2.799
    endloop
  endfacet
  facet normal 0 -0.999885 0.0151499
    outer loop
      vertex 49.199 8.73786 2.799
      vertex 69.1954 9.19544 32.999
      vertex 30.801 8.73786 2.799
    endloop
  endfacet
  facet normal 0 -0.999885 0.0151499
    outer loop
      vertex 50.801 8.73786 2.799
      vertex 69.1954 9.19544 32.999
      vertex 49.199 8.73786 2.799
    endloop
  endfacet
  facet normal 0 -0.999885 0.0151326
    outer loop
      vertex 68.7308 8.73077 2.33053
      vertex 50.801 8.73786 2.799
      vertex 51.2692 8.73077 2.33053
    endloop
  endfacet
  facet normal 4.44421e-07 -0.999885 0.0151496
    outer loop
      vertex 50.801 8.73786 2.799
      vertex 68.7308 8.73077 2.33053
      vertex 69.1954 9.19544 32.999
    endloop
  endfacet
  facet normal -0.931278 0.276382 -0.237348
    outer loop
      vertex 22.5003 -9.06351 24.2914
      vertex 22.6522 -3.43463 30.25
      vertex 22.501 -9.06347 24.2887
    endloop
  endfacet
  facet normal -0.928421 0.281602 -0.242352
    outer loop
      vertex 22.6522 -3.43463 30.25
      vertex 22.5003 -9.06351 24.2914
      vertex 22.5384 -3.80982 30.25
    endloop
  endfacet
  facet normal 0.226748 0.670018 -0.706867
    outer loop
      vertex 37.4914 -9.06336 24.282
      vertex 36.2654 -2.35224 30.25
      vertex 37.4933 -9.06337 24.2826
    endloop
  endfacet
  facet normal 0.20357 0.671113 -0.712859
    outer loop
      vertex 36.2654 -2.35224 30.25
      vertex 37.4914 -9.06336 24.282
      vertex 35.8902 -2.23843 30.25
    endloop
  endfacet
  facet normal -0.806483 0.439734 -0.395246
    outer loop
      vertex 22.501 -9.06347 24.2887
      vertex 22.8371 -3.08886 30.25
      vertex 22.5021 -9.06343 24.2865
    endloop
  endfacet
  facet normal -0.812194 0.434319 -0.389497
    outer loop
      vertex 22.8371 -3.08886 30.25
      vertex 22.501 -9.06347 24.2887
      vertex 22.6522 -3.43463 30.25
    endloop
  endfacet
  facet normal -0.471475 0.881879 0
    outer loop
      vertex 23.7346 -2.35224 30.25
      vertex 23.3889 -2.53706 31.25
      vertex 23.7346 -2.35224 31.25
    endloop
  endfacet
  facet normal -0.471475 0.881879 0
    outer loop
      vertex 23.3889 -2.53706 31.25
      vertex 23.7346 -2.35224 30.25
      vertex 23.3889 -2.53706 30.25
    endloop
  endfacet
  facet normal 0.773039 0.634358 0
    outer loop
      vertex 37.1629 -3.08886 31.25
      vertex 36.9142 -2.78579 30.25
      vertex 36.9142 -2.78579 31.25
    endloop
  endfacet
  facet normal 0.773039 0.634358 0
    outer loop
      vertex 36.9142 -2.78579 30.25
      vertex 37.1629 -3.08886 31.25
      vertex 37.1629 -3.08886 30.25
    endloop
  endfacet
  facet normal -0.995192 0.0979429 0
    outer loop
      vertex 22.5 -4.2 30.25
      vertex 22.5384 -3.80982 31.25
      vertex 22.5384 -3.80982 30.25
    endloop
  endfacet
  facet normal -0.995192 0.0979429 0
    outer loop
      vertex 22.5384 -3.80982 31.25
      vertex 22.5 -4.2 30.25
      vertex 22.5 -4.2 31.25
    endloop
  endfacet
  facet normal -0.989628 0.110832 -0.0913922
    outer loop
      vertex 22.5 -9.06355 24.2946
      vertex 22.5384 -3.80982 30.25
      vertex 22.5003 -9.06351 24.2914
    endloop
  endfacet
  facet normal -0.992024 0.0976311 -0.0797316
    outer loop
      vertex 22.5384 -3.80982 30.25
      vertex 22.5 -9.06355 24.2946
      vertex 22.5 -4.2 30.25
    endloop
  endfacet
  facet normal 0.992024 0.0976311 -0.0797316
    outer loop
      vertex 37.5 -9.06355 24.2946
      vertex 37.4616 -3.80982 30.25
      vertex 37.5 -4.2 30.25
    endloop
  endfacet
  facet normal 0.989628 0.110832 -0.0913922
    outer loop
      vertex 37.4616 -3.80982 30.25
      vertex 37.5 -9.06355 24.2946
      vertex 37.4997 -9.06351 24.2914
    endloop
  endfacet
  facet normal 1 -0 0
    outer loop
      vertex 37.5 -9.16894 31.25
      vertex 37.5 -4.2 30.25
      vertex 37.5 -4.2 31.25
    endloop
  endfacet
  facet normal 1 0 0
    outer loop
      vertex 37.5 -4.2 30.25
      vertex 37.5 -9.16894 31.25
      vertex 37.5 -9.06355 24.2946
    endloop
  endfacet
  facet normal -0.351356 0.6572 -0.666811
    outer loop
      vertex 22.5067 -9.06337 24.2826
      vertex 23.3889 -2.53706 30.25
      vertex 23.7346 -2.35224 30.25
    endloop
  endfacet
  facet normal -0.359263 0.655733 -0.664037
    outer loop
      vertex 23.3889 -2.53706 30.25
      vertex 22.5067 -9.06337 24.2826
      vertex 22.505 -9.06339 24.2835
    endloop
  endfacet
  facet normal 0.812194 0.434319 -0.389497
    outer loop
      vertex 37.499 -9.06347 24.2887
      vertex 37.1629 -3.08886 30.25
      vertex 37.3478 -3.43463 30.25
    endloop
  endfacet
  facet normal 0.806483 0.439734 -0.395246
    outer loop
      vertex 37.1629 -3.08886 30.25
      vertex 37.499 -9.06347 24.2887
      vertex 37.4979 -9.06343 24.2865
    endloop
  endfacet
  facet normal -1 0 0
    outer loop
      vertex 22.5 -9.16894 31.25
      vertex 22.5 -4.2 30.25
      vertex 22.5 -9.06355 24.2946
    endloop
  endfacet
  facet normal -1 0 0
    outer loop
      vertex 22.5 -4.2 30.25
      vertex 22.5 -9.16894 31.25
      vertex 22.5 -4.2 31.25
    endloop
  endfacet
  facet normal 0.0373947 0.662763 -0.747895
    outer loop
      vertex 37.4894 -9.06336 24.2819
      vertex 35.8902 -2.23843 30.25
      vertex 37.4914 -9.06336 24.282
    endloop
  endfacet
  facet normal 0.0655453 0.665516 -0.7435
    outer loop
      vertex 35.8902 -2.23843 30.25
      vertex 37.4894 -9.06336 24.2819
      vertex 35.5 -2.2 30.25
    endloop
  endfacet
  facet normal 0 0.656176 -0.754608
    outer loop
      vertex 37.4894 -9.06336 24.2819
      vertex 24.5 -2.2 30.25
      vertex 35.5 -2.2 30.25
    endloop
  endfacet
  facet normal 0 0.656176 -0.754608
    outer loop
      vertex 24.5 -2.2 30.25
      vertex 37.4894 -9.06336 24.2819
      vertex 22.5106 -9.06336 24.2819
    endloop
  endfacet
  facet normal -0.665181 0.545849 -0.509494
    outer loop
      vertex 22.5034 -9.06341 24.2848
      vertex 22.8371 -3.08886 30.25
      vertex 23.0858 -2.78579 30.25
    endloop
  endfacet
  facet normal -0.670228 0.542784 -0.506142
    outer loop
      vertex 22.8371 -3.08886 30.25
      vertex 22.5034 -9.06341 24.2848
      vertex 22.5021 -9.06343 24.2865
    endloop
  endfacet
  facet normal -0.0655453 0.665516 -0.7435
    outer loop
      vertex 22.5106 -9.06336 24.2819
      vertex 24.1098 -2.23843 30.25
      vertex 24.5 -2.2 30.25
    endloop
  endfacet
  facet normal -0.0373947 0.662763 -0.747895
    outer loop
      vertex 24.1098 -2.23843 30.25
      vertex 22.5106 -9.06336 24.2819
      vertex 22.5086 -9.06336 24.282
    endloop
  endfacet
  facet normal -0.634366 0.773033 0
    outer loop
      vertex 23.3889 -2.53706 30.25
      vertex 23.0858 -2.78579 31.25
      vertex 23.3889 -2.53706 31.25
    endloop
  endfacet
  facet normal -0.634366 0.773033 0
    outer loop
      vertex 23.0858 -2.78579 31.25
      vertex 23.3889 -2.53706 30.25
      vertex 23.0858 -2.78579 30.25
    endloop
  endfacet
  facet normal -0.0980137 0.995185 0
    outer loop
      vertex 24.5 -2.2 30.25
      vertex 24.1098 -2.23843 31.25
      vertex 24.5 -2.2 31.25
    endloop
  endfacet
  facet normal -0.0980137 0.995185 0
    outer loop
      vertex 24.1098 -2.23843 31.25
      vertex 24.5 -2.2 30.25
      vertex 24.1098 -2.23843 30.25
    endloop
  endfacet
  facet normal 0 1 -0
    outer loop
      vertex 35.5 -2.2 30.25
      vertex 24.5 -2.2 31.25
      vertex 35.5 -2.2 31.25
    endloop
  endfacet
  facet normal 0 1 0
    outer loop
      vertex 24.5 -2.2 31.25
      vertex 35.5 -2.2 30.25
      vertex 24.5 -2.2 30.25
    endloop
  endfacet
  facet normal -0.20357 0.671113 -0.712859
    outer loop
      vertex 22.5086 -9.06336 24.282
      vertex 23.7346 -2.35224 30.25
      vertex 24.1098 -2.23843 30.25
    endloop
  endfacet
  facet normal -0.226748 0.670018 -0.706867
    outer loop
      vertex 23.7346 -2.35224 30.25
      vertex 22.5086 -9.06336 24.282
      vertex 22.5067 -9.06337 24.2826
    endloop
  endfacet
  facet normal 0.956949 0.290255 0
    outer loop
      vertex 37.4616 -3.80982 31.25
      vertex 37.3478 -3.43463 30.25
      vertex 37.3478 -3.43463 31.25
    endloop
  endfacet
  facet normal 0.956949 0.290255 0
    outer loop
      vertex 37.3478 -3.43463 30.25
      vertex 37.4616 -3.80982 31.25
      vertex 37.4616 -3.80982 30.25
    endloop
  endfacet
  facet normal 0.881834 0.47156 0
    outer loop
      vertex 37.3478 -3.43463 31.25
      vertex 37.1629 -3.08886 30.25
      vertex 37.1629 -3.08886 31.25
    endloop
  endfacet
  facet normal 0.881834 0.47156 0
    outer loop
      vertex 37.1629 -3.08886 30.25
      vertex 37.3478 -3.43463 31.25
      vertex 37.3478 -3.43463 30.25
    endloop
  endfacet
  facet normal 0.928421 0.281602 -0.242352
    outer loop
      vertex 37.4997 -9.06351 24.2914
      vertex 37.3478 -3.43463 30.25
      vertex 37.4616 -3.80982 30.25
    endloop
  endfacet
  facet normal 0.931278 0.276382 -0.237348
    outer loop
      vertex 37.3478 -3.43463 30.25
      vertex 37.4997 -9.06351 24.2914
      vertex 37.499 -9.06347 24.2887
    endloop
  endfacet
  facet normal 0.0980137 0.995185 -0
    outer loop
      vertex 35.8902 -2.23843 30.25
      vertex 35.5 -2.2 31.25
      vertex 35.8902 -2.23843 31.25
    endloop
  endfacet
  facet normal 0.0980137 0.995185 0
    outer loop
      vertex 35.5 -2.2 31.25
      vertex 35.8902 -2.23843 30.25
      vertex 35.5 -2.2 30.25
    endloop
  endfacet
  facet normal -0.507107 0.617956 -0.60081
    outer loop
      vertex 23.3889 -2.53706 30.25
      vertex 22.5034 -9.06341 24.2848
      vertex 23.0858 -2.78579 30.25
    endloop
  endfacet
  facet normal -0.499159 0.620527 -0.604803
    outer loop
      vertex 22.5034 -9.06341 24.2848
      vertex 23.3889 -2.53706 30.25
      vertex 22.505 -9.06339 24.2835
    endloop
  endfacet
  facet normal 0.665181 0.545849 -0.509494
    outer loop
      vertex 37.1629 -3.08886 30.25
      vertex 37.4966 -9.06341 24.2848
      vertex 36.9142 -2.78579 30.25
    endloop
  endfacet
  facet normal 0.670228 0.542784 -0.506142
    outer loop
      vertex 37.4966 -9.06341 24.2848
      vertex 37.1629 -3.08886 30.25
      vertex 37.4979 -9.06343 24.2865
    endloop
  endfacet
  facet normal 0.634366 0.773033 -0
    outer loop
      vertex 36.9142 -2.78579 30.25
      vertex 36.6111 -2.53706 31.25
      vertex 36.9142 -2.78579 31.25
    endloop
  endfacet
  facet normal 0.634366 0.773033 0
    outer loop
      vertex 36.6111 -2.53706 31.25
      vertex 36.9142 -2.78579 30.25
      vertex 36.6111 -2.53706 30.25
    endloop
  endfacet
  facet normal 0.471475 0.881879 -0
    outer loop
      vertex 36.6111 -2.53706 30.25
      vertex 36.2654 -2.35224 31.25
      vertex 36.6111 -2.53706 31.25
    endloop
  endfacet
  facet normal 0.471475 0.881879 0
    outer loop
      vertex 36.2654 -2.35224 31.25
      vertex 36.6111 -2.53706 30.25
      vertex 36.2654 -2.35224 30.25
    endloop
  endfacet
  facet normal 0.995192 0.0979429 0
    outer loop
      vertex 37.5 -4.2 31.25
      vertex 37.4616 -3.80982 30.25
      vertex 37.4616 -3.80982 31.25
    endloop
  endfacet
  facet normal 0.995192 0.0979429 0
    outer loop
      vertex 37.4616 -3.80982 30.25
      vertex 37.5 -4.2 31.25
      vertex 37.5 -4.2 30.25
    endloop
  endfacet
  facet normal 0.290271 0.956944 -0
    outer loop
      vertex 36.2654 -2.35224 30.25
      vertex 35.8902 -2.23843 31.25
      vertex 36.2654 -2.35224 31.25
    endloop
  endfacet
  facet normal 0.290271 0.956944 0
    outer loop
      vertex 35.8902 -2.23843 31.25
      vertex 36.2654 -2.35224 30.25
      vertex 35.8902 -2.23843 30.25
    endloop
  endfacet
  facet normal -0.290271 0.956944 0
    outer loop
      vertex 24.1098 -2.23843 30.25
      vertex 23.7346 -2.35224 31.25
      vertex 24.1098 -2.23843 31.25
    endloop
  endfacet
  facet normal -0.290271 0.956944 0
    outer loop
      vertex 23.7346 -2.35224 31.25
      vertex 24.1098 -2.23843 30.25
      vertex 23.7346 -2.35224 30.25
    endloop
  endfacet
  facet normal -0.881834 0.47156 0
    outer loop
      vertex 22.6522 -3.43463 30.25
      vertex 22.8371 -3.08886 31.25
      vertex 22.8371 -3.08886 30.25
    endloop
  endfacet
  facet normal -0.881834 0.47156 0
    outer loop
      vertex 22.8371 -3.08886 31.25
      vertex 22.6522 -3.43463 30.25
      vertex 22.6522 -3.43463 31.25
    endloop
  endfacet
  facet normal -0.956949 0.290255 0
    outer loop
      vertex 22.5384 -3.80982 30.25
      vertex 22.6522 -3.43463 31.25
      vertex 22.6522 -3.43463 30.25
    endloop
  endfacet
  facet normal -0.956949 0.290255 0
    outer loop
      vertex 22.6522 -3.43463 31.25
      vertex 22.5384 -3.80982 30.25
      vertex 22.5384 -3.80982 31.25
    endloop
  endfacet
  facet normal -0.773039 0.634358 0
    outer loop
      vertex 22.8371 -3.08886 30.25
      vertex 23.0858 -2.78579 31.25
      vertex 23.0858 -2.78579 30.25
    endloop
  endfacet
  facet normal -0.773039 0.634358 0
    outer loop
      vertex 23.0858 -2.78579 31.25
      vertex 22.8371 -3.08886 30.25
      vertex 22.8371 -3.08886 31.25
    endloop
  endfacet
  facet normal 0.507107 0.617956 -0.60081
    outer loop
      vertex 37.4966 -9.06341 24.2848
      vertex 36.6111 -2.53706 30.25
      vertex 36.9142 -2.78579 30.25
    endloop
  endfacet
  facet normal 0.499159 0.620527 -0.604803
    outer loop
      vertex 36.6111 -2.53706 30.25
      vertex 37.4966 -9.06341 24.2848
      vertex 37.495 -9.06339 24.2835
    endloop
  endfacet
  facet normal 0.359263 0.655733 -0.664037
    outer loop
      vertex 37.4933 -9.06337 24.2826
      vertex 36.6111 -2.53706 30.25
      vertex 37.495 -9.06339 24.2835
    endloop
  endfacet
  facet normal 0.351356 0.6572 -0.666811
    outer loop
      vertex 36.6111 -2.53706 30.25
      vertex 37.4933 -9.06337 24.2826
      vertex 36.2654 -2.35224 30.25
    endloop
  endfacet
  facet normal 0 0 1
    outer loop
      vertex 35.5 -2.2 31.25
      vertex 37.5 -4.2 31.25
      vertex 37.4616 -3.80982 31.25
    endloop
  endfacet
  facet normal 0 0 1
    outer loop
      vertex 35.5 -2.2 31.25
      vertex 37.4616 -3.80982 31.25
      vertex 37.3478 -3.43463 31.25
    endloop
  endfacet
  facet normal 0 0 1
    outer loop
      vertex 35.5 -2.2 31.25
      vertex 37.3478 -3.43463 31.25
      vertex 37.1629 -3.08886 31.25
    endloop
  endfacet
  facet normal 0 0 1
    outer loop
      vertex 35.5 -2.2 31.25
      vertex 37.1629 -3.08886 31.25
      vertex 36.9142 -2.78579 31.25
    endloop
  endfacet
  facet normal 0 0 1
    outer loop
      vertex 35.5 -2.2 31.25
      vertex 36.9142 -2.78579 31.25
      vertex 36.6111 -2.53706 31.25
    endloop
  endfacet
  facet normal 0 0 1
    outer loop
      vertex 35.5 -2.2 31.25
      vertex 36.6111 -2.53706 31.25
      vertex 36.2654 -2.35224 31.25
    endloop
  endfacet
  facet normal 0 0 1
    outer loop
      vertex 35.5 -2.2 31.25
      vertex 36.2654 -2.35224 31.25
      vertex 35.8902 -2.23843 31.25
    endloop
  endfacet
  facet normal 0 0 1
    outer loop
      vertex 37.5 -4.2 31.25
      vertex 35.5 -2.2 31.25
      vertex 37.5 -9.16894 31.25
    endloop
  endfacet
  facet normal -0 0 1
    outer loop
      vertex 24.5 -2.2 31.25
      vertex 37.5 -9.16894 31.25
      vertex 35.5 -2.2 31.25
    endloop
  endfacet
  facet normal 0 0 1
    outer loop
      vertex 22.5 -4.2 31.25
      vertex 24.5 -2.2 31.25
      vertex 24.1098 -2.23843 31.25
    endloop
  endfacet
  facet normal 0 0 1
    outer loop
      vertex 22.5 -4.2 31.25
      vertex 24.1098 -2.23843 31.25
      vertex 23.7346 -2.35224 31.25
    endloop
  endfacet
  facet normal 0 0 1
    outer loop
      vertex 22.5 -4.2 31.25
      vertex 23.7346 -2.35224 31.25
      vertex 23.3889 -2.53706 31.25
    endloop
  endfacet
  facet normal 0 0 1
    outer loop
      vertex 22.5 -4.2 31.25
      vertex 23.3889 -2.53706 31.25
      vertex 23.0858 -2.78579 31.25
    endloop
  endfacet
  facet normal 0 0 1
    outer loop
      vertex 22.5 -4.2 31.25
      vertex 23.0858 -2.78579 31.25
      vertex 22.8371 -3.08886 31.25
    endloop
  endfacet
  facet normal 0 0 1
    outer loop
      vertex 22.5 -4.2 31.25
      vertex 22.8371 -3.08886 31.25
      vertex 22.6522 -3.43463 31.25
    endloop
  endfacet
  facet normal 0 0 1
    outer loop
      vertex 22.5 -4.2 31.25
      vertex 22.6522 -3.43463 31.25
      vertex 22.5384 -3.80982 31.25
    endloop
  endfacet
  facet normal 0 0 1
    outer loop
      vertex 24.5 -2.2 31.25
      vertex 22.5 -4.2 31.25
      vertex 22.5 -9.16894 31.25
    endloop
  endfacet
  facet normal 0 0 1
    outer loop
      vertex 24.5 -2.2 31.25
      vertex 22.5 -9.16894 31.25
      vertex 37.5 -9.16894 31.25
    endloop
  endfacet
endsolid OpenSCAD_Model
