solid OpenSCAD_Model
  facet normal -1 0 0
    outer loop
      vertex 8.05 -8.05 0
      vertex 8.05 8.05 0.498
      vertex 8.05 8.05 0
    endloop
  endfacet
  facet normal -1 -0 0
    outer loop
      vertex 8.05 8.05 0.498
      vertex 8.05 -8.05 0
      vertex 8.05 -8.05 0.498
    endloop
  endfacet
  facet normal 1 -0 0
    outer loop
      vertex -8.05 -8.05 0.498
      vertex -8.05 8.05 0
      vertex -8.05 8.05 0.498
    endloop
  endfacet
  facet normal 1 0 0
    outer loop
      vertex -8.05 8.05 0
      vertex -8.05 -8.05 0.498
      vertex -8.05 -8.05 0
    endloop
  endfacet
  facet normal 0 -1 0
    outer loop
      vertex -8.05 8.05 0
      vertex 8.05 8.05 0.498
      vertex -8.05 8.05 0.498
    endloop
  endfacet
  facet normal 0 -1 -0
    outer loop
      vertex 8.05 8.05 0.498
      vertex -8.05 8.05 0
      vertex 8.05 8.05 0
    endloop
  endfacet
  facet normal 0 1 -0
    outer loop
      vertex 8.05 -8.05 0
      vertex -8.05 -8.05 0.498
      vertex 8.05 -8.05 0.498
    endloop
  endfacet
  facet normal 0 1 0
    outer loop
      vertex -8.05 -8.05 0.498
      vertex 8.05 -8.05 0
      vertex -8.05 -8.05 0
    endloop
  endfacet
  facet normal -0.707285 0 0.706929
    outer loop
      vertex 8.05 -8.05 0.498
      vertex 9.30137 9.30137 1.75
      vertex 8.05 8.05 0.498
    endloop
  endfacet
  facet normal -0.707285 0 0.706929
    outer loop
      vertex 9.30137 9.30137 1.75
      vertex 8.05 -8.05 0.498
      vertex 9.30137 -9.30137 1.75
    endloop
  endfacet
  facet normal 0 0.707285 0.706929
    outer loop
      vertex 8.05 -8.05 0.498
      vertex -9.30137 -9.30137 1.75
      vertex 9.30137 -9.30137 1.75
    endloop
  endfacet
  facet normal 0 0.707285 0.706929
    outer loop
      vertex -9.30137 -9.30137 1.75
      vertex 8.05 -8.05 0.498
      vertex -8.05 -8.05 0.498
    endloop
  endfacet
  facet normal 0.707285 0 0.706929
    outer loop
      vertex -9.30137 9.30137 1.75
      vertex -8.05 -8.05 0.498
      vertex -8.05 8.05 0.498
    endloop
  endfacet
  facet normal 0.707285 0 0.706929
    outer loop
      vertex -8.05 -8.05 0.498
      vertex -9.30137 9.30137 1.75
      vertex -9.30137 -9.30137 1.75
    endloop
  endfacet
  facet normal 0 -0.707285 0.706929
    outer loop
      vertex -8.05 8.05 0.498
      vertex 9.30137 9.30137 1.75
      vertex -9.30137 9.30137 1.75
    endloop
  endfacet
  facet normal 0 -0.707285 0.706929
    outer loop
      vertex 9.30137 9.30137 1.75
      vertex -8.05 8.05 0.498
      vertex 8.05 8.05 0.498
    endloop
  endfacet
  facet normal 1 -0 0
    outer loop
      vertex 10 -10 1.75
      vertex 10 10 0
      vertex 10 10 1.75
    endloop
  endfacet
  facet normal 1 0 0
    outer loop
      vertex 10 10 0
      vertex 10 -10 1.75
      vertex 10 -10 0
    endloop
  endfacet
  facet normal 0 0 -1
    outer loop
      vertex 10 -10 0
      vertex 8.05 -8.05 0
      vertex 10 10 0
    endloop
  endfacet
  facet normal 0 0 -1
    outer loop
      vertex 10 -10 0
      vertex -8.05 -8.05 0
      vertex 8.05 -8.05 0
    endloop
  endfacet
  facet normal -0 0 -1
    outer loop
      vertex -8.05 -8.05 0
      vertex -10 -10 0
      vertex -8.05 8.05 0
    endloop
  endfacet
  facet normal 0 0 -1
    outer loop
      vertex -10 -10 0
      vertex -8.05 -8.05 0
      vertex 10 -10 0
    endloop
  endfacet
  facet normal 0 0 -1
    outer loop
      vertex 8.05 8.05 0
      vertex 10 10 0
      vertex 8.05 -8.05 0
    endloop
  endfacet
  facet normal 0 0 -1
    outer loop
      vertex -8.05 8.05 0
      vertex 10 10 0
      vertex 8.05 8.05 0
    endloop
  endfacet
  facet normal 0 0 -1
    outer loop
      vertex -8.05 8.05 0
      vertex -10 10 0
      vertex 10 10 0
    endloop
  endfacet
  facet normal 0 0 -1
    outer loop
      vertex -10 10 0
      vertex -8.05 8.05 0
      vertex -10 -10 0
    endloop
  endfacet
  facet normal -1 0 0
    outer loop
      vertex -10 -10 0
      vertex -10 10 1.75
      vertex -10 10 0
    endloop
  endfacet
  facet normal -1 -0 0
    outer loop
      vertex -10 10 1.75
      vertex -10 -10 0
      vertex -10 -10 1.75
    endloop
  endfacet
  facet normal 0 1 -0
    outer loop
      vertex 10 10 0
      vertex -10 10 1.75
      vertex 10 10 1.75
    endloop
  endfacet
  facet normal 0 1 0
    outer loop
      vertex -10 10 1.75
      vertex 10 10 0
      vertex -10 10 0
    endloop
  endfacet
  facet normal 0 -1 0
    outer loop
      vertex -10 -10 0
      vertex 10 -10 1.75
      vertex -10 -10 1.75
    endloop
  endfacet
  facet normal 0 -1 -0
    outer loop
      vertex 10 -10 1.75
      vertex -10 -10 0
      vertex 10 -10 0
    endloop
  endfacet
  facet normal 0 0 1
    outer loop
      vertex 10 10 1.75
      vertex 9.30137 9.30137 1.75
      vertex 10 -10 1.75
    endloop
  endfacet
  facet normal 0 0 1
    outer loop
      vertex 10 10 1.75
      vertex -9.30137 9.30137 1.75
      vertex 9.30137 9.30137 1.75
    endloop
  endfacet
  facet normal 0 0 1
    outer loop
      vertex -9.30137 9.30137 1.75
      vertex -10 10 1.75
      vertex -9.30137 -9.30137 1.75
    endloop
  endfacet
  facet normal -0 0 1
    outer loop
      vertex -10 10 1.75
      vertex -9.30137 9.30137 1.75
      vertex 10 10 1.75
    endloop
  endfacet
  facet normal -0 0 1
    outer loop
      vertex 9.30137 -9.30137 1.75
      vertex 10 -10 1.75
      vertex 9.30137 9.30137 1.75
    endloop
  endfacet
  facet normal -0 0 1
    outer loop
      vertex -9.30137 -9.30137 1.75
      vertex 10 -10 1.75
      vertex 9.30137 -9.30137 1.75
    endloop
  endfacet
  facet normal 0 0 1
    outer loop
      vertex -9.30137 -9.30137 1.75
      vertex -10 -10 1.75
      vertex 10 -10 1.75
    endloop
  endfacet
  facet normal 0 0 1
    outer loop
      vertex -10 -10 1.75
      vertex -9.30137 -9.30137 1.75
      vertex -10 10 1.75
    endloop
  endfacet
endsolid OpenSCAD_Model
